<?xml version="1.0" encoding="UTF-8"?>
<svg version="1.1" xmlns="http://www.w3.org/2000/svg" viewBox="0 100 1000 500" fill="none" >
<path d="M0 0 C337.92 0 675.84 0 1024 0 C1024 246.51 1024 493.02 1024 747 C686.08 747 348.16 747 0 747 C0 500.49 0 253.98 0 0 Z " fill="#000000" transform="translate(0,0)"/>
<path d="M0 0 C7.73710741 -0.10216144 15.47403824 -0.17178288 23.21166992 -0.21972656 C25.83901469 -0.23973214 28.46631556 -0.26694537 31.09350586 -0.30175781 C34.88927096 -0.35076332 38.68444289 -0.37308051 42.48046875 -0.390625 C43.63830368 -0.41127014 44.79613861 -0.43191528 45.98905945 -0.45318604 C56.16321846 -0.45593011 66.15673004 0.88091115 73.8125 8.0625 C77 11.48659794 77 11.48659794 77 15 C93.17 15 109.34 15 126 15 C126 17.31 126 19.62 126 22 C125.030625 21.93941406 124.06125 21.87882812 123.0625 21.81640625 C122.42231934 21.77644531 121.78213867 21.73648437 121.12255859 21.6953125 C119.69317126 21.60587303 118.26380967 21.51602124 116.83447266 21.42578125 C113.08545372 21.18967422 109.33629099 20.96004009 105.5859375 20.74609375 C104.87953125 20.70476318 104.173125 20.66343262 103.4453125 20.62084961 C101.47147095 20.50563126 99.49745776 20.39336474 97.5234375 20.28125 C94.2956317 20.0235981 91.19004375 19.53610457 88 19 C86.54279072 18.93907988 85.08326541 18.91235749 83.625 18.9375 C82.42875 18.958125 81.2325 18.97875 80 19 C80.165 19.515625 80.33 20.03125 80.5 20.5625 C81 23 81 23 81 30 C94.86 30 108.72 30 123 30 C124.04449911 33.13349732 123.93423645 33.98968256 123 37 C114.26744356 37.22014848 106.09743418 36.90309728 97.453125 35.51171875 C91.99289281 34.7025667 86.50610982 34.34756175 81 34 C81.020625 35.0725 81.04125 36.145 81.0625 37.25 C81 41 81 41 80 45 C93.53 45 107.06 45 121 45 C120.67 47.31 120.34 49.62 120 52 C113.28093605 52.12047731 106.73916486 51.80102302 100.0625 51.0625 C98.31904777 50.87855184 96.57555837 50.69495568 94.83203125 50.51171875 C94.00396973 50.42325684 93.1759082 50.33479492 92.32275391 50.24365234 C87.88656588 49.77830489 83.44357262 49.38728385 79 49 C78.86722656 49.69867188 78.73445313 50.39734375 78.59765625 51.1171875 C78.42105469 52.02726562 78.24445313 52.93734375 78.0625 53.875 C77.88847656 54.77992188 77.71445312 55.68484375 77.53515625 56.6171875 C77 59 77 59 76 61 C89.86 61 103.72 61 118 61 C118 62.98 118 64.96 118 67 C117.67 67.33 117.34 67.66 117 68 C108.40849157 67.84886386 99.93632011 66.7742202 91.453125 65.4765625 C85.98873985 64.7224279 80.50320074 64.34737812 75 64 C74.896875 64.680625 74.79375 65.36125 74.6875 66.0625 C74 69 74 69 71 76 C85.85 76 100.7 76 116 76 C115.67 78.31 115.34 80.62 115 83 C107.0378466 83.24544386 99.33334314 82.47112309 91.4375 81.5 C87.98590713 81.07688922 84.53782218 80.66668346 81.07763672 80.3203125 C79.20225117 80.1251272 77.33004489 79.88193255 75.47314453 79.5546875 C72.88645232 79.13174232 72.88645232 79.13174232 69 80 C66.03 83.3 63.06 86.6 60 90 C77.49 90.33 94.98 90.66 113 91 C113 93.31 113 95.62 113 98 C98.51489746 97.69485527 84.22321018 97.07017046 69.86914062 95.01635742 C59.18398759 93.36879451 59.18398759 93.36879451 48.875 95.9375 C43.39952263 98.44185768 38.26907078 99.12734809 32.27001953 99.11352539 C31.16933136 99.11344986 30.06864319 99.11337433 28.93460083 99.11329651 C27.17646561 99.10555458 27.17646561 99.10555458 25.3828125 99.09765625 C24.17051971 99.0962413 22.95822693 99.09482635 21.709198 99.09336853 C17.84777327 99.08778345 13.98640712 99.07523361 10.125 99.0625 C7.50260501 99.05748308 4.8802091 99.0529205 2.2578125 99.04882812 C-4.16147822 99.03781889 -10.58073493 99.02109555 -17 99 C-16.51424936 93.63847516 -16.00146843 88.35481491 -14.87890625 83.08203125 C-14.66669434 82.06286621 -14.45448242 81.04370117 -14.23583984 79.99365234 C-14.0136377 78.94387207 -13.79143555 77.8940918 -13.5625 76.8125 C-11.88567502 68.68982195 -10.44314901 60.65827358 -9.46484375 52.421875 C-8.77687972 47.35753473 -7.7010934 42.38629444 -6.65625 37.38671875 C-6.10784505 34.55655749 -5.70639343 31.80409607 -5.4375 28.9375 C-5 25 -5 25 -4.07421875 22.37109375 C-2.68378906 18.00767258 -2.04241349 13.64706692 -1.375 9.125 C-1.2409375 8.24585938 -1.106875 7.36671875 -0.96875 6.4609375 C-0.64112941 4.30800222 -0.31991492 2.15409378 0 0 Z " fill="#FAFAFA" transform="translate(218,297)"/>
<path d="M0 0 C7.38937559 -0.11647085 14.77854939 -0.20500427 22.16866112 -0.25906086 C25.60121742 -0.28502161 29.03314022 -0.32016534 32.46533203 -0.37719727 C36.42212013 -0.44252573 40.37866259 -0.46629239 44.3359375 -0.48828125 C46.16153702 -0.52699089 46.16153702 -0.52699089 48.02401733 -0.56648254 C55.68786009 -0.56897666 61.67167351 0.46301872 68 5 C75.52321284 12.94392995 75.52037012 20.52756485 75.34375 31.015625 C74.8347608 42.13703907 69.98768178 52.97473863 62.1328125 60.87890625 C57.52407193 65 57.52407193 65 55 65 C55.41894531 66.25039063 55.83789062 67.50078125 56.26953125 68.7890625 C58.10789183 74.30738651 59.90736904 79.83764064 61.6875 85.375 C62.00783203 86.35855469 62.32816406 87.34210938 62.65820312 88.35546875 C62.96048828 89.29777344 63.26277344 90.24007812 63.57421875 91.2109375 C63.84838623 92.05962402 64.12255371 92.90831055 64.4050293 93.78271484 C65 96 65 96 65 99 C54.11 99 43.22 99 32 99 C31.030625 95.885625 30.06125 92.77125 29.0625 89.5625 C28.75836182 88.60029541 28.45422363 87.63809082 28.14086914 86.64672852 C26.43729088 81.06812158 25.46739581 75.81582379 25 70 C22.69 70 20.38 70 18 70 C18.05994141 71.65708984 18.05994141 71.65708984 18.12109375 73.34765625 C18.11995339 78.52146643 17.12765965 83.39181296 16.0625 88.4375 C15.78889648 89.80165039 15.78889648 89.80165039 15.50976562 91.19335938 C14.14074248 97.85925752 14.14074248 97.85925752 13 99 C10.78144736 99.08783542 8.56011504 99.10694609 6.33984375 99.09765625 C5.34314415 99.09553383 5.34314415 99.09553383 4.3263092 99.09336853 C2.19666101 99.08775518 0.06711661 99.07520054 -2.0625 99.0625 C-3.50325369 99.05748671 -4.94400903 99.05292351 -6.38476562 99.04882812 C-9.92321102 99.03778145 -13.46159539 99.02050792 -17 99 C-16.10687617 86.5543763 -16.10687617 86.5543763 -14.6875 80.75 C-13.20861215 74.24289347 -12.07388896 67.71056395 -11 61.125 C-9.65231287 52.8712958 -8.21663612 44.64721119 -6.64453125 36.43359375 C-6.07470863 33.39799322 -5.55427589 30.36151054 -5.0625 27.3125 C-4.12779402 21.55572968 -3.03158603 15.83278131 -1.93359375 10.10546875 C-1.7476062 9.13234741 -1.56161865 8.15922607 -1.36999512 7.15661621 C-0.91394588 4.77095896 -0.45726399 2.38542466 0 0 Z " fill="#FAFAFA" transform="translate(820,297)"/>
<path d="M0 0 C36.63 0 73.26 0 111 0 C111 1.98 111 3.96 111 6 C110.67 6.33 110.34 6.66 110 7 C107.68974632 6.98741006 105.42847871 6.89678117 103.125 6.75 C102.40062744 6.70625244 101.67625488 6.66250488 100.92993164 6.61743164 C89.25082262 5.83261272 77.62242915 4.36560652 66 3 C65.86722656 3.69867188 65.73445312 4.39734375 65.59765625 5.1171875 C65.42105469 6.02726562 65.24445313 6.93734375 65.0625 7.875 C64.88847656 8.77992188 64.71445312 9.68484375 64.53515625 10.6171875 C64 13 64 13 63 15 C77.85 15 92.7 15 108 15 C108 17.31 108 19.62 108 22 C99.70785569 22.25043389 91.61124283 21.46596541 83.375 20.5625 C82.10398437 20.42779297 80.83296875 20.29308594 79.5234375 20.15429688 C73.34098413 19.49419118 67.16595274 18.79986541 61 18 C60.67 20.31 60.34 22.62 60 25 C48.78 25 37.56 25 26 25 C25.67 29.29 25.34 33.58 25 38 C34.57 38 44.14 38 54 38 C54 40.31 54 42.62 54 45 C70.17 45 86.34 45 103 45 C102.67 47.31 102.34 49.62 102 52 C85.52019672 52.89348331 69.28014914 50.24081123 53 48 C52.855625 49.03125 52.71125 50.0625 52.5625 51.125 C52.08375076 54.42305033 51.54787888 57.71272673 51 61 C67.17 61 83.34 61 100 61 C100 63.31 100 65.62 100 68 C97.45805839 67.85811015 94.91652007 67.71160845 92.375 67.5625 C91.66214844 67.52318359 90.94929687 67.48386719 90.21484375 67.44335938 C87.08800207 67.25689634 84.06556747 67.01099841 80.97265625 66.4921875 C77.34316598 65.89124693 73.730971 65.72724288 70.0625 65.5625 C64.66889776 65.28961113 59.40561713 64.82720277 54.0625 64 C42.79592331 62.35899861 31.36586871 62.31769159 20 62 C19.90912109 62.92232422 19.90912109 62.92232422 19.81640625 63.86328125 C19.73261719 64.67152344 19.64882813 65.47976563 19.5625 66.3125 C19.48128906 67.11300781 19.40007813 67.91351563 19.31640625 68.73828125 C19 71 19 71 18 74 C30.21 74 42.42 74 55 74 C55 74.66 55 75.32 55 76 C69.19 76 83.38 76 98 76 C97.67 78.31 97.34 80.62 97 83 C86.99573134 82.56995225 77.02846183 81.99217832 67.0625 81 C66.21719727 80.9170166 65.37189453 80.8340332 64.50097656 80.74853516 C60.86344759 80.37236648 57.56808796 79.89202199 54 79 C53.505 84.94 53.505 84.94 53 91 C67.19 91 81.38 91 96 91 C95 95 95 95 94 98 C85.14710468 98.25995451 76.61790327 97.79001524 67.83862305 96.71142578 C62.51908946 96.07667978 57.35873193 95.91468685 52 96 C51.505 97.485 51.505 97.485 51 99 C28.89 99 6.78 99 -16 99 C-16 93.88550671 -15.7703194 89.74281319 -14.94140625 84.7890625 C-14.8327977 84.13545746 -14.72418915 83.48185242 -14.61228943 82.80844116 C-14.38383077 81.44165795 -14.15260384 80.07533475 -13.91870117 78.70947266 C-13.56008751 76.61088221 -13.21206971 74.51072204 -12.86523438 72.41015625 C-11.13805373 62.13805373 -11.13805373 62.13805373 -10 61 C-9.44538776 57.96052617 -8.94450175 54.92815306 -8.4765625 51.875 C-8.25629898 50.47266113 -8.25629898 50.47266113 -8.03158569 49.04199219 C-7.5588641 46.0285836 -7.0916336 43.01435683 -6.625 40 C-6.16468437 37.04290911 -5.70313782 34.08601932 -5.23983765 31.12939453 C-4.95180232 29.28952526 -4.66551531 27.44938087 -4.38150024 25.60888672 C-3.04590628 17.04565608 -1.50736116 8.54171322 0 0 Z " fill="#F9F9F9" transform="translate(704,297)"/>
<path d="M0 0 C0.95018005 0.00359528 1.90036011 0.00719055 2.8793335 0.01089478 C4.37184883 0.01067574 4.37184883 0.01067574 5.89451599 0.01045227 C9.20059348 0.01115186 12.5066154 0.01894637 15.81268311 0.02676392 C18.09811879 0.02862793 20.38355487 0.03005191 22.66899109 0.03105164 C28.69751073 0.03487809 34.72600644 0.04470947 40.7545166 0.05575562 C46.90085527 0.06596699 53.04719778 0.07054867 59.19354248 0.07559204 C71.26321447 0.08633162 83.33286868 0.10340957 95.40252686 0.12442017 C95.89752686 3.58942017 95.89752686 3.58942017 96.40252686 7.12442017 C89.01743552 7.30378352 81.9128586 6.6103271 74.59002686 5.68692017 C73.47176514 5.55221313 72.35350342 5.4175061 71.20135498 5.27871704 C66.84041993 4.74242929 62.67120124 4.19158876 58.40252686 3.12442017 C57.41252686 7.08442017 56.42252686 11.04442017 55.40252686 15.12442017 C69.92252686 15.12442017 84.44252686 15.12442017 99.40252686 15.12442017 C99.89752686 18.58942017 99.89752686 18.58942017 100.40252686 22.12442017 C98.67344946 22.15167358 96.94424509 22.17093004 95.21502686 22.18692017 C93.77063232 22.20432251 93.77063232 22.20432251 92.29705811 22.22207642 C89.40252686 22.12442017 89.40252686 22.12442017 87.03533936 21.64785767 C83.52860322 20.95067274 80.02718655 20.84421033 76.46502686 20.68692017 C68.68384547 20.29459881 61.09647765 19.38032656 53.40252686 18.12442017 C53.18596436 19.82598267 53.18596436 19.82598267 52.96502686 21.56192017 C52.40252686 25.12442017 52.40252686 25.12442017 51.40252686 26.12442017 C48.95422259 26.2128581 46.53432087 26.23970768 44.08612061 26.22207642 C42.9895388 26.21995399 42.9895388 26.21995399 41.87080383 26.2177887 C39.52717053 26.21217425 37.18363146 26.19961938 34.84002686 26.18692017 C33.25474177 26.18190702 31.6694552 26.1773438 30.08416748 26.17324829 C26.19025076 26.16220013 22.2964048 26.14492588 18.40252686 26.12442017 C18.42315186 27.36192017 18.44377686 28.59942017 18.46502686 29.87442017 C18.51686004 32.98441106 18.18474985 34.99552818 17.40252686 38.12442017 C27.30252686 38.12442017 37.20252686 38.12442017 47.40252686 38.12442017 C47.07252686 40.43442017 46.74252686 42.74442017 46.40252686 45.12442017 C66.20252686 45.12442017 86.00252686 45.12442017 106.40252686 45.12442017 C105.40252686 51.12442017 105.40252686 51.12442017 104.40252686 53.12442017 C94.11353732 52.56537587 83.99020632 51.52815499 73.77752686 50.12442017 C64.32689977 48.83314637 54.92338037 47.73801768 45.40252686 47.12442017 C45.18596436 48.64035767 45.18596436 48.64035767 44.96502686 50.18692017 C44.44419352 53.8327535 43.92336019 57.47858683 43.40252686 61.12442017 C61.55252686 61.12442017 79.70252686 61.12442017 98.40252686 61.12442017 C96.40252686 66.12442017 96.40252686 66.12442017 95.40252686 67.12442017 C91.38260766 67.25047262 87.35790586 67.02495768 83.34002686 66.87442017 C82.11501465 66.82994751 80.89000244 66.78547485 79.62786865 66.73965454 C71.91425884 66.40885063 64.35465818 65.71787003 56.71502686 64.62442017 C42.01601673 62.52348001 27.22662686 62.38064267 12.40252686 62.12442017 C12.40252686 64.10442017 12.40252686 66.08442017 12.40252686 68.12442017 C11.74252686 68.12442017 11.08252686 68.12442017 10.40252686 68.12442017 C10.40252686 70.10442017 10.40252686 72.08442017 10.40252686 74.12442017 C22.61252686 74.12442017 34.82252686 74.12442017 47.40252686 74.12442017 C47.40252686 74.78442017 47.40252686 75.44442017 47.40252686 76.12442017 C61.26252686 76.12442017 75.12252686 76.12442017 89.40252686 76.12442017 C88.40252686 80.12442017 88.40252686 80.12442017 87.40252686 83.12442017 C78.7718336 83.43578678 70.37317343 82.2472274 61.84002686 81.12442017 C60.33944243 80.93119378 58.83879175 80.7384812 57.33807373 80.54629517 C53.69210838 80.07825931 50.04708929 79.60327243 46.40252686 79.12442017 C45.90752686 85.06442017 45.90752686 85.06442017 45.40252686 91.12442017 C57.28252686 91.12442017 69.16252686 91.12442017 81.40252686 91.12442017 C79.40252686 96.12442017 79.40252686 96.12442017 78.40252686 98.12442017 C66.49500518 98.49143282 55.12678307 97.13584588 43.40252686 95.12442017 C43.40252686 96.44442017 43.40252686 97.76442017 43.40252686 99.12442017 C20.96252686 99.12442017 -1.47747314 99.12442017 -24.59747314 99.12442017 C-23.30723399 90.09274607 -21.91785515 81.31073342 -20.00958252 72.42910767 C-18.96832934 67.43428399 -18.28288861 62.55102499 -17.94342041 57.45742798 C-17.59747314 55.12442017 -17.59747314 55.12442017 -16.62408447 52.69766235 C-15.4861615 49.84541309 -15.06316187 47.29241369 -14.66778564 44.24942017 C-14.51414551 43.10835815 -14.36050537 41.96729614 -14.20220947 40.79165649 C-14.04389648 39.58146851 -13.8855835 38.37128052 -13.72247314 37.12442017 C-12.47897096 28.02098983 -11.13453853 18.9626234 -9.40997314 9.93692017 C-9.24320068 9.05326782 -9.07642822 8.16961548 -8.90460205 7.25918579 C-7.50323968 0.09826726 -7.31727398 0.01170147 0 0 Z " fill="#F9F9F9" transform="translate(358.59747314453125,296.8755798339844)"/>
<path d="M0 0 C11.22 0 22.44 0 34 0 C39.13004484 19.23766816 39.13004484 19.23766816 39 26 C41.4104442 23.77900764 43.00248838 21.53059184 44.62890625 18.69140625 C45.10650391 17.86189453 45.58410156 17.03238281 46.07617188 16.17773438 C46.8119043 14.88319336 46.8119043 14.88319336 47.5625 13.5625 C48.3040332 12.27375977 48.3040332 12.27375977 49.06054688 10.95898438 C51.1359061 7.33904115 53.13282577 3.73434846 55 0 C77.44 0 99.88 0 123 0 C123 1.98 123 3.96 123 6 C122.67 6.33 122.34 6.66 122 7 C119.33994836 6.93402352 116.71524071 6.80619967 114.0625 6.625 C112.90041016 6.55164429 112.90041016 6.55164429 111.71484375 6.47680664 C106.87039153 6.16035779 102.05225399 5.71816023 97.2265625 5.1875 C93.47922868 4.87193505 89.75826494 4.93938282 86 5 C84.35 7.97 82.7 10.94 81 14 C100.8 14.495 100.8 14.495 121 15 C120.67 17.31 120.34 19.62 120 22 C112.00054921 22.20085957 104.19852635 21.4195377 96.25 20.5625 C94.94933594 20.42779297 93.64867187 20.29308594 92.30859375 20.15429688 C81.85652737 19.0509634 81.85652737 19.0509634 77 18 C76.7215625 19.175625 76.7215625 19.175625 76.4375 20.375 C75.14364682 23.63776019 73.83847148 25.80862708 71.8125 28.625 C63.33036376 39.59529922 63.33036376 39.59529922 60.4609375 52.671875 C61.00274949 55.27065734 61.00274949 55.27065734 62.4453125 58.67578125 C64.19551131 63.19232186 64.87446927 67.65334828 65.5 72.4375 C65.71073636 74.04143785 65.92947673 75.64434461 66.15625 77.24609375 C66.29256836 78.29301392 66.29256836 78.29301392 66.43164062 79.36108398 C67.28601967 83.3280011 68.71678548 87.15035645 70 91 C89.47 91 108.94 91 129 91 C129 93.31 129 95.62 129 98 C115.94440803 98.38756602 103.37170054 97.20292116 90.4375 95.5 C88.53983677 95.25814573 86.64205048 95.01725496 84.74414062 94.77734375 C80.16127139 94.19595003 75.5802461 93.60169539 71 93 C71 94.98 71 96.96 71 99 C59.78 99 48.56 99 37 99 C36.360625 95.865 35.72125 92.73 35.0625 89.5 C34.86277588 88.52869141 34.66305176 87.55738281 34.45727539 86.55664062 C33.4123878 81.38115711 32.58242807 76.2479835 32 71 C28.84447442 73.83997302 27.55077469 76.10854292 26 80 C24.6490187 82.13542205 23.19743247 84.17357324 21.73046875 86.23046875 C19.18086348 90.31098825 17.15179583 94.69640834 15 99 C4.44 99 -6.12 99 -17 99 C-16.1421135 94.71056749 -15.64280991 93.02970386 -13.4375 89.5625 C-10.86577099 85.42429816 -8.40008596 81.23952192 -6 77 C-3.66495296 72.89228194 -1.30798393 68.80072718 1.125 64.75 C1.59421875 63.96625 2.0634375 63.1825 2.546875 62.375 C3.5755233 60.69376837 4.6303625 59.02843211 5.703125 57.375 C9.79869316 51.20095628 9.79869316 51.20095628 10 44 C9.70996094 43.14921875 9.41992188 42.2984375 9.12109375 41.421875 C7.72477227 37.15993207 6.6385409 32.85211624 5.5625 28.5 C5.34440674 27.62085938 5.12631348 26.74171875 4.90161133 25.8359375 C0 5.917357 0 5.917357 0 0 Z " fill="#FAFAFA" transform="translate(459,297)"/>
<path d="M0 0 C37.29 0 74.58 0 113 0 C112.67 2.31 112.34 4.62 112 7 C103.88296335 7.21044922 96.04782535 6.5887648 88 5.5625 C86.88238281 5.42779297 85.76476562 5.29308594 84.61328125 5.15429688 C76.42598724 4.14199575 76.42598724 4.14199575 73 3 C72.67 6.96 72.34 10.92 72 15 C84.54 15 97.08 15 110 15 C110 17.31 110 19.62 110 22 C102.88235641 22.11156181 95.90148786 21.68064922 88.8125 21.0625 C87.75869141 20.97548828 86.70488281 20.88847656 85.61914062 20.79882812 C80.70424794 20.38073707 75.85052376 19.92989316 71 19 C70.67 20.98 70.34 22.96 70 25 C62.74 25 55.48 25 48 25 C48 26.65 48 28.3 48 30 C67.8 30 87.6 30 108 30 C107.67 32.31 107.34 34.62 107 37 C98.51868037 37.23853711 90.53045285 36.80422835 82.12890625 35.64453125 C74.9415246 34.69439667 67.71637121 34.06143357 60.5 33.375 C59.78562775 33.30679047 59.07125549 33.23858093 58.3352356 33.16830444 C54.22376925 32.77588952 50.11202096 32.38656715 46 32 C46.01160156 32.60328125 46.02320313 33.2065625 46.03515625 33.828125 C46.04417969 34.62734375 46.05320312 35.4265625 46.0625 36.25 C46.07410156 37.03890625 46.08570313 37.8278125 46.09765625 38.640625 C46 41 46 41 45 45 C64.8 45 84.6 45 105 45 C104.67 47.64 104.34 50.28 104 53 C94.52293934 52.55429665 85.16837369 51.86411649 75.7578125 50.609375 C69.35013472 49.76648584 62.92374716 49.08243906 56.5 48.375 C55.27490723 48.23980957 54.04981445 48.10461914 52.78759766 47.96533203 C49.85849722 47.64264508 46.92930381 47.32083464 44 47 C43.896875 48.258125 43.79375 49.51625 43.6875 50.8125 C42.75045178 59.24593398 41.3233943 67.61850278 40 76 C59.8 76 79.6 76 100 76 C99.67 78.31 99.34 80.62 99 83 C88.43745267 83.34560482 78.06470654 81.91194163 67.59130859 80.70898438 C58.00547956 79.61558622 48.66854585 78.7484606 39 79 C38.34 82.96 37.68 86.92 37 91 C56.8 91 76.6 91 97 91 C97 93.31 97 95.62 97 98 C85.35058196 98.27824567 74.11678235 97.45970048 62.5625 96.0625 C60.97731172 95.87741241 59.39202513 95.69316486 57.80664062 95.50976562 C54.82382274 95.1635739 51.8415849 94.81302737 48.85986328 94.45751953 C44.57543456 93.94967517 40.28895586 93.46779656 36 93 C35.67 94.98 35.34 96.96 35 99 C25.1 99 15.2 99 5 99 C5 93.80411093 5.13055009 90.70491508 6.37109375 85.9296875 C8.05066708 79.03978772 9.10393172 72.14661125 10.0625 65.125 C11.00697561 58.23677629 12.04263198 51.68093384 14 45 C14.46134998 42.09352939 14.76871729 39.17760855 15.0625 36.25 C15.8777881 28.36663569 15.8777881 28.36663569 17 25 C10.4 25 3.8 25 -3 25 C-3.343871 15.48623579 -2.30045341 9.96863146 0 0 Z " fill="#FAFAFA" transform="translate(587,297)"/>
<path d="M0 0 C20.14221013 1.01512465 40.06268035 2.94212889 60 6 C60.33 4.35 60.66 2.7 61 1 C62.32 1 63.64 1 65 1 C64.88449154 3.02139807 64.75711059 5.04211906 64.625 7.0625 C64.55539062 8.18785156 64.48578125 9.31320312 64.4140625 10.47265625 C64 14 64 14 63.0546875 17.25390625 C62.00286305 20.98983085 61.31517159 24.63272752 60.7109375 28.46484375 C60.54871201 29.48210289 60.54871201 29.48210289 60.38320923 30.51991272 C60.04310165 32.65849225 59.70895009 34.79795124 59.375 36.9375 C59.14362455 38.39915119 58.9118573 39.8607404 58.6796875 41.32226562 C58.11526506 44.88080612 57.55617533 48.44016008 57 52 C55.68 51.67 54.36 51.34 53 51 C53 48.69 53 46.38 53 44 C33.2 44 13.4 44 -7 44 C-6 32 -6 32 -5 31 C2.92753006 30.53336698 10.79889015 31.2222374 18.671875 32.09375 C19.72030579 32.20473022 20.76873657 32.31571045 21.84893799 32.43005371 C25.14995185 32.78082535 28.44995389 33.14024958 31.75 33.5 C34.00775091 33.74146202 36.26556302 33.98235249 38.5234375 34.22265625 C44.01634876 34.80850913 49.50845959 35.40144076 55 36 C55.33 33.69 55.66 31.38 56 29 C36.2 29 16.4 29 -4 29 C-4 18.875 -4 18.875 -3.125 14.74609375 C-2.94453125 13.87275391 -2.7640625 12.99941406 -2.578125 12.09960938 C-2.38734375 11.22111328 -2.1965625 10.34261719 -2 9.4375 C-1.80921875 8.52419922 -1.6184375 7.61089844 -1.421875 6.66992188 C-0.95588071 4.44479913 -0.48183025 2.22173724 0 0 Z " fill="#060606" transform="translate(631,344)"/>
<path d="M0 0 C0.495 0.99 0.495 0.99 1 2 C2.32 2 3.64 2 5 2 C3.95075754 11.76071608 2.4374615 21.33083688 0.54101562 30.96044922 C-1.21583261 39.9371541 -2.63571782 48.95646279 -4 58 C-4.66 57.01 -5.32 56.02 -6 55 C-6.99 55.495 -6.99 55.495 -8 56 C-8 52.7 -8 49.4 -8 46 C-24.17 46 -40.34 46 -57 46 C-56 37 -56 37 -55 33 C-48.17591646 32.83918656 -41.74618038 33.45471466 -35 34.4375 C-25.33474007 35.78004925 -15.74761776 36.62056253 -6 37 C-5.67 34.69 -5.34 32.38 -5 30 C-21.17 30 -37.34 30 -54 30 C-54 27.69 -54 25.38 -54 23 C-63.57 23 -73.14 23 -83 23 C-83 15 -83 15 -82 10 C-70.78 10 -59.56 10 -48 10 C-47.67 7.69 -47.34 5.38 -47 3 C-41.15607579 2.90649721 -35.4952551 3.24903513 -29.6875 3.875 C-28.83317383 3.96378418 -27.97884766 4.05256836 -27.09863281 4.14404297 C-24.39866926 4.4255159 -21.69934493 4.71266126 -19 5 C-17.15759154 5.19308518 -15.31514392 5.38579715 -13.47265625 5.578125 C-8.98130676 6.04777084 -4.4905211 6.52250115 0 7 C0 4.69 0 2.38 0 0 Z " fill="#080808" transform="translate(812,312)"/>
<path d="M0 0 C12.41972808 -0.65279505 24.54284414 1.31491323 36.8125 3 C38.96929639 3.28984231 41.12619687 3.57891119 43.28320312 3.8671875 C48.523369 4.56921093 53.7621686 5.28077683 59 6 C59 5.34 59 4.68 59 4 C60.8125 2.3125 60.8125 2.3125 63 1 C63.99 1.33 64.98 1.66 66 2 C63.4766346 7.24083584 60.71654187 12.21751899 57.69140625 17.18359375 C55.80549871 20.32386935 53.99442091 23.50114046 52.1875 26.6875 C49.23099697 31.89345354 46.20597243 37.05421145 43.125 42.1875 C42.5530188 43.14112427 42.5530188 43.14112427 41.96948242 44.11401367 C40.36266445 46.78145425 38.72772284 49.40841574 37 52 C37 51.34 37 50.68 37 50 C35.02 49.505 35.02 49.505 33 49 C33.99 47.35 34.98 45.7 36 44 C24.12 44 12.24 44 0 44 C0 36.125 0 36.125 1 32 C9.63069326 31.68863339 18.02935342 32.87719277 26.5625 34 C28.06308442 34.19322638 29.5637351 34.38593896 31.06445312 34.578125 C34.71041848 35.04616085 38.35543756 35.52114773 42 36 C42.144375 35.401875 42.28875 34.80375 42.4375 34.1875 C42.8872439 32.43849596 43.42892341 30.71322977 44 29 C30.14 29 16.28 29 2 29 C2 28.34 2 27.68 2 27 C-10.21 27 -22.42 27 -35 27 C-35 25.02 -35 23.04 -35 21 C-34.34 21 -33.68 21 -33 21 C-33 19.02 -33 17.04 -33 15 C-17.14564072 14.70477463 -1.58796323 14.52607244 14.13671875 16.85595703 C26.0279239 18.56429969 38.0037596 18.7472859 50 19 C50.99 17.35 51.98 15.7 53 14 C34.85 14 16.7 14 -2 14 C-2 8.03527231 -1.72577473 5.2851851 0 0 Z " fill="#090909" transform="translate(404,344)"/>
<path d="M0 0 C23.76 0 47.52 0 72 0 C75.40748439 6.81496878 70.78360153 19.73351408 69.5625 26.875 C69.34529297 28.16019531 69.12808594 29.44539063 68.90429688 30.76953125 C68.47616463 33.30232561 68.04477244 35.83457144 67.60986328 38.36621094 C67.20862828 40.75691619 66.8262442 43.15087478 66.46435547 45.54785156 C66.2995166 46.62776367 66.13467773 47.70767578 65.96484375 48.8203125 C65.82554443 49.77437988 65.68624512 50.72844727 65.54272461 51.71142578 C65 54 65 54 63 56 C62.01 56.33 61.02 56.66 60 57 C60 56.34 60 55.68 60 55 C57.03 54.505 57.03 54.505 54 54 C54 53.67 54 53.34 54 53 C55.98 53 57.96 53 60 53 C60.33 50.69 60.66 48.38 61 46 C47.47 46 33.94 46 20 46 C20.33 42.37 20.66 38.74 21 35 C28.96638969 34.7618023 36.47620026 35.23904193 44.34375 36.48828125 C50.53708043 37.35508284 56.75748941 37.66776554 63 38 C63 36.02 63 34.04 63 32 C49.14 31.67 35.28 31.34 21 31 C20.34 27.04 19.68 23.08 19 19 C20.36125 18.979375 21.7225 18.95875 23.125 18.9375 C24.27355469 18.92009766 24.27355469 18.92009766 25.4453125 18.90234375 C28 19 28 19 30.79663086 19.47485352 C33.8108372 19.96898947 36.76391966 20.27373907 39.80859375 20.5 C40.88560547 20.5825 41.96261719 20.665 43.07226562 20.75 C44.73805664 20.87375 44.73805664 20.87375 46.4375 21 C59.74564561 21.99210404 59.74564561 21.99210404 66 23 C66 20.69 66 18.38 66 16 C65.08917915 16.01665459 65.08917915 16.01665459 64.15995789 16.03364563 C57.85003341 16.14411311 51.54038271 16.21961454 45.22973633 16.2746582 C42.87350308 16.2998299 40.51734812 16.33396993 38.16137695 16.37719727 C34.77796134 16.43772985 31.39557628 16.46618345 28.01171875 16.48828125 C26.42722176 16.52699089 26.42722176 16.52699089 24.81071472 16.56648254 C22.11507065 16.56752051 19.64231226 16.53363885 17 16 C14.94067383 13.63354492 14.94067383 13.63354492 14 11 C9.85445172 5.72384764 5.28659509 4.50145863 -1 3 C-0.67 2.01 -0.34 1.02 0 0 Z " fill="#0A0A0A" transform="translate(278,296)"/>
<path d="M0 0 C13.99732031 -0.41168589 28.31005828 1.0484988 42 4 C42 4.66 42 5.32 42 6 C42.66 5.34 43.32 4.68 44 4 C44.75252827 14.28455299 42.64517615 23.74813908 40.47851562 33.72265625 C39.69276677 37.46217937 39.08400158 41.22958178 38.4921875 45.00390625 C37.60945147 48.58389127 36.01346639 49.99102241 33 52 C33 51.34 33 50.68 33 50 C31.35 50 29.7 50 28 50 C28 49.67 28 49.34 28 49 C29.98 49 31.96 49 34 49 C34 46.69 34 44.38 34 42 C16.18 42 -1.64 42 -20 42 C-18.02 39.69 -16.04 37.38 -14 35 C-13.401875 34.030625 -12.80375 33.06125 -12.1875 32.0625 C-9.21254478 29.25754222 -7.42104727 29.78121634 -3.48342896 29.8737793 C0.35410623 30.06882268 4.15592271 30.43725578 7.97265625 30.875 C9.18543495 31.00817627 9.18543495 31.00817627 10.42271423 31.14404297 C12.96984066 31.42479384 15.51615333 31.71227176 18.0625 32 C19.80398681 32.19315644 21.54552295 32.38586877 23.28710938 32.578125 C27.52532629 33.04695806 31.76282792 33.52181985 36 34 C36.33 31.69 36.66 29.38 37 27 C22.15 27 7.3 27 -8 27 C-6.66666667 23 -5.33333333 19 -4 15 C5.49834124 14.50776351 14.56388017 15.58461499 23.95141602 16.93286133 C28.67612856 17.60496776 33.21138749 18.19446142 38 18 C38.33 16.02 38.66 14.04 39 12 C25.14 12 11.28 12 -3 12 C-2.01 8.04 -1.02 4.08 0 0 Z " fill="#0A0A0A" transform="translate(297,346)"/>
<path d="M0 0 C3.27075883 -0.0580476 6.54138524 -0.09361165 9.8125 -0.125 C11.2056543 -0.15013672 11.2056543 -0.15013672 12.62695312 -0.17578125 C13.51962891 -0.18222656 14.41230469 -0.18867188 15.33203125 -0.1953125 C16.15421143 -0.20578613 16.9763916 -0.21625977 17.82348633 -0.22705078 C20 0 20 0 23 2 C23.52858743 8.75463288 22.14273664 15.37636134 21.02856445 22.01586914 C20.68807596 24.05904384 20.36414305 26.10440764 20.04101562 28.15039062 C19.82391983 29.46631172 19.60585338 30.78207313 19.38671875 32.09765625 C19.19295654 33.27851807 18.99919434 34.45937988 18.79956055 35.67602539 C17.95741999 39.17701581 16.85112681 41.91441457 15 45 C9.81779407 48.05551573 5.47924641 48.39861904 -0.4375 48.1875 C-1.16904297 48.17396484 -1.90058594 48.16042969 -2.65429688 48.14648438 C-4.43652422 48.11153874 -6.21836573 48.05774805 -8 48 C-7.70399029 39.62292531 -6.43750463 31.89066568 -4.51928711 23.76000977 C-3.120663 17.76909817 -2.1589232 11.830648 -1.39453125 5.72265625 C-1 3 -1 3 0 0 Z " fill="#040404" transform="translate(244,323)"/>
<path d="M0 0 C3 1 3 1 4.02734375 2.671875 C4.32769531 3.35765625 4.62804687 4.0434375 4.9375 4.75 C8.19248948 11.6683997 12.08336675 15.97477791 19.25 18.6875 C20.4875 19.120625 21.725 19.55375 23 20 C23 20.66 23 21.32 23 22 C22.40832031 22.15855469 21.81664062 22.31710937 21.20703125 22.48046875 C12.8035783 24.96174931 8.6610203 29.82134829 4 37 C3.29325371 38.31252882 2.60036728 39.63552891 2 41 C0 40 0 40 -1.625 36.375 C-5.08724226 29.17922037 -11.00585094 25.41178003 -18 22 C-18.33 21.01 -18.66 20.02 -19 19 C-18.40832031 18.76925781 -17.81664062 18.53851562 -17.20703125 18.30078125 C-9.582403 15.15391184 -5.26154209 11.15330279 -1 4 C-0.23060319 1.77397385 -0.23060319 1.77397385 0 0 Z " fill="#7C7C7C" transform="translate(974,678)"/>
<path d="M0 0 C12 0 12 0 17 3 C20.10045398 6.15461038 20.40828582 8.51455783 20.375 12.875 C20.24807883 17.60569802 19.88386175 21.08618763 17 25 C13 27 13 27 0 27 C0 18.09 0 9.18 0 0 Z " fill="#D9D9D9" transform="translate(527,419)"/>
<path d="M0 0 C13.25290023 -0.36813612 13.25290023 -0.36813612 16.42578125 1.1953125 C18.49882604 3.57185517 18.50645302 4.9412265 18.4375 8.0625 C18.43621094 8.94035156 18.43492187 9.81820313 18.43359375 10.72265625 C18.21896484 11.84994141 18.21896484 11.84994141 18 13 C17.01 13.66 16.02 14.32 15 15 C15.474375 15.515625 15.94875 16.03125 16.4375 16.5625 C18.42809407 19.66782675 18.65060818 22.36632504 19 26 C17.109375 25.78515625 17.109375 25.78515625 15 25 C13.953125 22.93359375 13.953125 22.93359375 13.25 20.4375 C13.00765625 19.61121094 12.7653125 18.78492188 12.515625 17.93359375 C12.34546875 17.29550781 12.1753125 16.65742188 12 16 C9.36 16 6.72 16 4 16 C4 19.63 4 23.26 4 27 C2.68 27 1.36 27 0 27 C0 18.09 0 9.18 0 0 Z " fill="#D7D7D7" transform="translate(480,419)"/>
<path d="M0 0 C2.64590014 -0.02684679 5.29153096 -0.04676357 7.9375 -0.0625 C8.69224609 -0.07087891 9.44699219 -0.07925781 10.22460938 -0.08789062 C12.14994313 -0.09652441 14.07535581 -0.05224333 16 0 C16.33 0.33 16.66 0.66 17 1 C16.98823042 2.9184413 16.89000211 4.83663779 16.75 6.75 C16.68296875 7.79671875 16.6159375 8.8434375 16.546875 9.921875 C15.95052806 13.27845634 15.04830421 15.28843537 13 18 C9.71480525 19.09506492 7.26336585 19.09960608 3.8125 19.0625 C2.18248047 19.04896484 2.18248047 19.04896484 0.51953125 19.03515625 C-0.31191406 19.02355469 -1.14335938 19.01195312 -2 19 C-1.37802877 12.66118686 -0.71457113 6.32905858 0 0 Z " fill="#060606" transform="translate(845,323)"/>
<path d="M0 0 C37.29 0 74.58 0 113 0 C112.67 2.31 112.34 4.62 112 7 C103.88296335 7.21044922 96.04782535 6.5887648 88 5.5625 C86.88238281 5.42779297 85.76476562 5.29308594 84.61328125 5.15429688 C76.42598724 4.14199575 76.42598724 4.14199575 73 3 C73 4.98 73 6.96 73 9 C72.67 9 72.34 9 72 9 C72 7.35 72 5.7 72 4 C71.01 3.67 70.02 3.34 69 3 C69 2.67 69 2.34 69 2 C46.23 2 23.46 2 0 2 C0 1.34 0 0.68 0 0 Z " fill="#E1E1E1" transform="translate(587,297)"/>
<path d="M0 0 C36.63 0 73.26 0 111 0 C111 1.98 111 3.96 111 6 C110.67 6.33 110.34 6.66 110 7 C107.68974632 6.98741006 105.42847871 6.89678117 103.125 6.75 C102.40062744 6.70625244 101.67625488 6.66250488 100.92993164 6.61743164 C89.25082262 5.83261272 77.62242915 4.36560652 66 3 C65.67 4.98 65.34 6.96 65 9 C64.06576355 5.98968256 63.95550089 5.13349732 65 2 C33.32 1.505 33.32 1.505 1 1 C0.67 2.32 0.34 3.64 0 5 C0 3.35 0 1.7 0 0 Z " fill="#D5D5D5" transform="translate(704,297)"/>
<path d="M0 0 C0.33 0.66 0.66 1.32 1 2 C20.8 2 40.6 2 61 2 C60.67 4.64 60.34 7.28 60 10 C50.52293934 9.55429665 41.16837369 8.86411649 31.7578125 7.609375 C25.35013472 6.76648584 18.92374716 6.08243906 12.5 5.375 C11.27490723 5.23980957 10.04981445 5.10461914 8.78759766 4.96533203 C5.85849722 4.64264508 2.92930381 4.32083464 0 4 C0 2.68 0 1.36 0 0 Z " fill="#CBCBCB" transform="translate(631,340)"/>
<path d="M0 0 C0.33 0.66 0.66 1.32 1 2 C20.47 2 39.94 2 60 2 C60 4.31 60 6.62 60 9 C46.94440803 9.38756602 34.37170054 8.20292116 21.4375 6.5 C19.53983677 6.25814573 17.64205048 6.01725496 15.74414062 5.77734375 C11.16127139 5.19595003 6.5802461 4.60169539 2 4 C2 5.98 2 7.96 2 10 C1.67 10 1.34 10 1 10 C0.67 6.7 0.34 3.4 0 0 Z " fill="#EEEEEE" transform="translate(528,386)"/>
<path d="M0 0 C20.79 0 41.58 0 63 0 C62.67 2.64 62.34 5.28 62 8 C59.24968413 7.85888117 56.49984582 7.71228835 53.75 7.5625 C52.58404297 7.50352539 52.58404297 7.50352539 51.39453125 7.44335938 C50.64042969 7.40146484 49.88632812 7.35957031 49.109375 7.31640625 C48.41811523 7.27974854 47.72685547 7.24309082 47.01464844 7.20532227 C45 7 45 7 43.13769531 6.51721191 C41.00241938 6.00058537 38.96782616 5.72840312 36.78222656 5.51928711 C35.5514035 5.39927589 35.5514035 5.39927589 34.29571533 5.27684021 C32.98144562 5.15333946 32.98144562 5.15333946 31.640625 5.02734375 C30.73624695 4.93997452 29.8318689 4.85260529 28.90008545 4.7625885 C26.01698826 4.48471856 23.13350936 4.21105632 20.25 3.9375 C18.2929421 3.74962633 16.3359105 3.56147852 14.37890625 3.37304688 C9.5862366 2.91218535 4.79322036 2.4550966 0 2 C0 1.34 0 0.68 0 0 Z " fill="#D0D0D0" transform="translate(533,342)"/>
<path d="M0 0 C21.78 0 43.56 0 66 0 C65.67 2.31 65.34 4.62 65 7 C62.06243881 7.0269501 59.12512445 7.04681474 56.1875 7.0625 C54.93743164 7.07506836 54.93743164 7.07506836 53.66210938 7.08789062 C52.85966797 7.09111328 52.05722656 7.09433594 51.23046875 7.09765625 C50.49207764 7.10289307 49.75368652 7.10812988 48.99291992 7.11352539 C47 7 47 7 44 6 C42.6160769 5.81565745 41.22674886 5.67014684 39.83569336 5.55102539 C39.00150375 5.4774733 38.16731415 5.4039212 37.30784607 5.32814026 C35.96243492 5.21405067 35.96243492 5.21405067 34.58984375 5.09765625 C32.69463369 4.9280444 30.79945221 4.75811284 28.90429688 4.58789062 C25.91330887 4.32314694 22.92214793 4.06118503 19.93041992 3.80493164 C17.04529604 3.5562672 14.16134106 3.29651905 11.27734375 3.03515625 C10.37837875 2.96112076 9.47941376 2.88708527 8.5532074 2.81080627 C7.30665123 2.69574989 7.30665123 2.69574989 6.03491211 2.57836914 C5.30227646 2.514767 4.56964081 2.45116486 3.81480408 2.38563538 C2 2 2 2 0 0 Z " fill="#CCCCCC" transform="translate(140,342)"/>
<path d="M0 0 C0.33 0.66 0.66 1.32 1 2 C20.8 2 40.6 2 61 2 C61 4.31 61 6.62 61 9 C49.35058196 9.27824567 38.11678235 8.45970048 26.5625 7.0625 C24.97731172 6.87741241 23.39202513 6.69316486 21.80664062 6.50976562 C18.82382274 6.1635739 15.8415849 5.81302737 12.85986328 5.45751953 C8.57543456 4.94967517 4.28895586 4.46779656 0 4 C0 2.68 0 1.36 0 0 Z " fill="#D1D1D1" transform="translate(623,386)"/>
<path d="M0 0 C0.33 0.99 0.66 1.98 1 3 C20.8 3 40.6 3 61 3 C60 9 60 9 59 11 C48.71101047 10.44095571 38.58767947 9.40373483 28.375 8 C18.92437291 6.7087262 9.52085352 5.61359751 0 5 C0 3.35 0 1.7 0 0 Z " fill="#B9B9B9" transform="translate(404,339)"/>
<path d="M0 0 C19.8 0 39.6 0 60 0 C59.67 2.64 59.34 5.28 59 8 C48.5081135 7.33991443 38.06585957 6.35525802 27.61083984 5.27050781 C24.97654394 4.99756973 22.34182245 4.72904761 19.70703125 4.4609375 C18.01299407 4.28671836 16.31898267 4.11224838 14.625 3.9375 C13.84680908 3.85830322 13.06861816 3.77910645 12.2668457 3.69750977 C8.14741815 3.26728352 4.07966272 2.73174903 0 2 C0 1.34 0 0.68 0 0 Z " fill="#E4E4E4" transform="translate(149,327)"/>
<path d="M0 0 C21.45 0 42.9 0 65 0 C64.67 2.64 64.34 5.28 64 8 C63.18474854 7.91673462 63.18474854 7.91673462 62.35302734 7.83178711 C55.14150297 7.10239125 47.92524187 6.42767725 40.70806885 5.75680542 C38.59154315 5.5593792 36.47518993 5.36019674 34.35888672 5.16040039 C32.93717455 5.02620367 31.51546231 4.8920077 30.09375 4.7578125 C29.39758575 4.69208542 28.70142151 4.62635834 27.98416138 4.55863953 C23.83435419 4.16823709 19.68347858 3.79333809 15.53125 3.4296875 C13.72915684 3.26573297 11.92707265 3.10167979 10.125 2.9375 C9.31240723 2.87054932 8.49981445 2.80359863 7.66259766 2.73461914 C2.22643819 2.22643819 2.22643819 2.22643819 0 0 Z " fill="#D0D0D0" transform="translate(133,388)"/>
<path d="M0 0 C20.79 0 41.58 0 63 0 C62.67 2.64 62.34 5.28 62 8 C42.2922171 6.21204187 42.2922171 6.21204187 33.25 5 C22.21090698 3.557131 11.09917325 2.82579973 0 2 C0 1.34 0 0.68 0 0 Z " fill="#D1D1D1" transform="translate(747,327)"/>
<path d="M0 0 C0.33 1.32 0.66 2.64 1 4 C20.8 4 40.6 4 61 4 C60.67 6.31 60.34 8.62 60 11 C52.07391801 11.22292106 44.54422722 10.95321385 36.68994141 9.85424805 C29.23527405 8.83560337 21.74857223 8.27287779 14.24853516 7.69775391 C9.45049045 7.3221315 4.73331489 6.9127382 0 6 C0 4.02 0 2.04 0 0 Z " fill="#D0D0D0" transform="translate(634,323)"/>
<path d="M0 0 C1.65 0 3.3 0 5 0 C6.31536809 3.74900018 7.62679501 7.49936725 8.9375 11.25 C9.49727539 12.84521484 9.49727539 12.84521484 10.06835938 14.47265625 C10.60493164 16.00986328 10.60493164 16.00986328 11.15234375 17.578125 C11.48226318 18.52075195 11.81218262 19.46337891 12.15209961 20.43457031 C12.87207539 22.61294795 13.48294227 24.76631062 14 27 C12.35 26.67 10.7 26.34 9 26 C8.67 24.02 8.34 22.04 8 20 C4.37 20.33 0.74 20.66 -3 21 C-3.66 22.98 -4.32 24.96 -5 27 C-6.32 27 -7.64 27 -9 27 C-6.75424696 17.70179445 -3.45076489 8.90051656 0 0 Z " fill="#F1F1F1" transform="translate(510,419)"/>
<path d="M0 0 C20.46 0 40.92 0 62 0 C61.67 2.31 61.34 4.62 61 7 C51.56681172 7.43463495 42.72159896 6.52719657 33.41333008 5.13964844 C26.57245645 4.1443128 19.80752731 3.56538245 12.89746094 3.37915039 C8.24523127 3.21901528 4.39013283 2.42521913 0 1 C0 0.67 0 0.34 0 0 Z " fill="#F2F2F2" transform="translate(537,327)"/>
<path d="M0 0 C19.14 0 38.28 0 58 0 C58.495 3.96 58.495 3.96 59 8 C51.51531174 7.51298261 44.10371944 6.78775531 36.66821289 5.8034668 C29.45915214 4.87940326 22.22409418 4.28545393 14.98095703 3.69750977 C9.95345776 3.2839756 4.984163 2.78115176 0 2 C0 1.34 0 0.68 0 0 Z " fill="#E2E2E2" transform="translate(404,327)"/>
<path d="M0 0 C18.15 0.33 36.3 0.66 55 1 C55 3.31 55 5.62 55 8 C35.38850374 7.72042109 16.38075429 5.81677663 -3 3 C-2.01 2.67 -1.02 2.34 0 2 C0 1.34 0 0.68 0 0 Z " fill="#D4D4D4" transform="translate(276,387)"/>
<path d="M0 0 C0.33 0 0.66 0 1 0 C1 1.65 1 3.3 1 5 C20.8 5 40.6 5 61 5 C60.67 7.31 60.34 9.62 60 12 C49.46187591 12.34445349 39.11524626 10.91524199 28.66674805 9.70898438 C18.72333886 8.56916088 9.0240715 7.67507793 -1 8 C-0.67 5.36 -0.34 2.72 0 0 Z " fill="#EBEBEB" transform="translate(626,368)"/>
<path d="M0 0 C22.11 0 44.22 0 67 0 C66.67 2.31 66.34 4.62 66 7 C53.4415545 6.42676165 40.99430499 5.37611232 28.5 4 C26.83598448 3.81987796 25.17192198 3.6401894 23.5078125 3.4609375 C20.37090556 3.12279973 17.2342161 2.78274684 14.09765625 2.44140625 C9.40114785 1.93253681 4.7016713 1.45869964 0 1 C0 0.67 0 0.34 0 0 Z " fill="#D9D9D9" transform="translate(144,312)"/>
<path d="M0 0 C0.33 1.32 0.66 2.64 1 4 C19.15 4 37.3 4 56 4 C54 9 54 9 53 10 C48.9800808 10.12605245 44.95537901 9.90053752 40.9375 9.75 C39.71248779 9.70552734 38.48747559 9.66105469 37.2253418 9.61523438 C29.51173198 9.28443047 21.95213132 8.59344987 14.3125 7.5 C-0.38651013 5.39905985 -15.17589999 5.25622251 -30 5 C-30 4.67 -30 4.34 -30 4 C-20.1 4 -10.2 4 0 4 C0 2.68 0 1.36 0 0 Z " fill="#F6F6F6" transform="translate(401,354)"/>
<path d="M0 0 C16.17 0 32.34 0 49 0 C48.67 2.31 48.34 4.62 48 7 C31.52019672 7.89348331 15.28014914 5.24081123 -1 3 C-0.67 2.01 -0.34 1.02 0 0 Z " fill="#C6C6C6" transform="translate(758,342)"/>
<path d="M0 0 C19.8 0 39.6 0 60 0 C59.67 2.31 59.34 4.62 59 7 C49.61246554 7.29247595 40.49010814 6.16513686 31.1875 5.0625 C28.05636458 4.69592962 24.92484546 4.33283714 21.79296875 3.97265625 C21.04175751 3.88601715 20.29054626 3.79937805 19.51657104 3.71011353 C13.02125554 2.97436711 6.5230152 2.43274849 0 2 C0 1.34 0 0.68 0 0 Z " fill="#DADADA" transform="translate(531,373)"/>
<path d="M0 0 C10.23 0 20.46 0 31 0 C31 0.66 31 1.32 31 2 C44.86 2 58.72 2 73 2 C72 6 72 6 71 9 C62.36930674 9.31136661 53.97064658 8.12280723 45.4375 7 C43.93691558 6.80677362 42.4362649 6.61406104 40.93554688 6.421875 C37.28958152 5.95383915 33.64456244 5.47885227 30 5 C30 6.65 30 8.3 30 10 C29.67 10 29.34 10 29 10 C29 7.36 29 4.72 29 2 C19.43 1.67 9.86 1.34 0 1 C0 0.67 0 0.34 0 0 Z " fill="#E2E2E2" transform="translate(375,371)"/>
<path d="M0 0 C19.14 0 38.28 0 58 0 C58 1.98 58 3.96 58 6 C57.67 6.33 57.34 6.66 57 7 C54.55694486 6.95819062 52.15469072 6.84749912 49.71875 6.68359375 C48.96420532 6.63561142 48.20966064 6.58762909 47.43225098 6.53819275 C38.97557308 5.97360544 30.54131129 5.18261806 22.10986328 4.32543945 C19.44777572 4.05723849 16.78454794 3.80305592 14.12109375 3.54882812 C12.42439369 3.37845326 10.72777536 3.20726196 9.03125 3.03515625 C8.23666382 2.96112076 7.44207764 2.88708527 6.62341309 2.81080627 C4.74004449 2.61178473 2.8673988 2.31544978 1 2 C0.67 1.34 0.34 0.68 0 0 Z " fill="#DEDEDE" transform="translate(155,297)"/>
<path d="M0 0 C33.66 0 67.32 0 102 0 C102.495 3.465 102.495 3.465 103 7 C95.52725321 7.19018656 88.34481897 6.4488891 80.9375 5.5 C79.20983398 5.28537109 79.20983398 5.28537109 77.44726562 5.06640625 C74.63086114 4.71581648 71.81518341 4.36024128 69 4 C69 3.34 69 2.68 69 2 C46.23 1.67 23.46 1.34 0 1 C0 0.67 0 0.34 0 0 Z " fill="#DCDCDC" transform="translate(352,297)"/>
<path d="M0 0 C1.485 0.99 1.485 0.99 3 2 C3 2.99 3 3.98 3 5 C19.17 5 35.34 5 52 5 C52 7.31 52 9.62 52 12 C50.5459375 11.90912109 50.5459375 11.90912109 49.0625 11.81640625 C48.102229 11.75646484 48.102229 11.75646484 47.12255859 11.6953125 C45.69317126 11.60587303 44.26380967 11.51602124 42.83447266 11.42578125 C39.08545372 11.18967422 35.33629099 10.96004009 31.5859375 10.74609375 C30.87953125 10.70476318 30.173125 10.66343262 29.4453125 10.62084961 C27.47147095 10.50563126 25.49745776 10.39336474 23.5234375 10.28125 C20 10 20 10 16.875 9.47265625 C14.06245421 9.01026761 11.47063216 8.89904551 8.625 8.9375 C7.75101562 8.94652344 6.87703125 8.95554687 5.9765625 8.96484375 C5.32429688 8.97644531 4.67203125 8.98804688 4 9 C4 8.34 4 7.68 4 7 C3.01 6.67 2.02 6.34 1 6 C0.67 4.02 0.34 2.04 0 0 Z " fill="#E5E5E5" transform="translate(292,307)"/>
<path d="M0 0 C0.33 0.66 0.66 1.32 1 2 C0.67 2.66 0.34 3.32 0 4 C14.85 4 29.7 4 45 4 C45 6.31 45 8.62 45 11 C36.70785569 11.25043389 28.61124283 10.46596541 20.375 9.5625 C18.46847656 9.36043945 18.46847656 9.36043945 16.5234375 9.15429688 C10.34098413 8.49419118 4.16595274 7.79986541 -2 7 C-2.33 6.01 -2.66 5.02 -3 4 C-1.5625 1.8125 -1.5625 1.8125 0 0 Z " fill="#E9E9E9" transform="translate(767,308)"/>
<path d="M0 0 C0.33 0.66 0.66 1.32 1 2 C15.52 2 30.04 2 45 2 C45.495 5.465 45.495 5.465 46 9 C44.2709226 9.02725341 42.54171824 9.04650987 40.8125 9.0625 C39.36810547 9.07990234 39.36810547 9.07990234 37.89453125 9.09765625 C35 9 35 9 32.6328125 8.5234375 C29.12607636 7.82625257 25.6246597 7.71979017 22.0625 7.5625 C14.28131861 7.17017865 6.6939508 6.25590639 -1 5 C-1.33 7.31 -1.66 9.62 -2 12 C-2.33 12 -2.66 12 -3 12 C-2.67 9.36 -2.34 6.72 -2 4 C-1.34 4 -0.68 4 0 4 C0 2.68 0 1.36 0 0 Z " fill="#D2D2D2" transform="translate(413,310)"/>
<path d="M0 0 C17.82 0 35.64 0 54 0 C53.67 2.31 53.34 4.62 53 7 C42.89540369 7.44458664 33.05892104 6.25015276 23.05981445 4.97363281 C20.28149827 4.6210659 17.50137529 4.28654244 14.72070312 3.953125 C12.95559509 3.73284252 11.19061556 3.51152731 9.42578125 3.2890625 C8.59363602 3.19001617 7.76149078 3.09096985 6.90412903 2.98892212 C4.92561764 2.72940535 2.96008797 2.37404735 1 2 C0.67 1.34 0.34 0.68 0 0 Z " fill="#DFDFDF" transform="translate(146,373)"/>
<path d="M0 0 C19.14 0 38.28 0 58 0 C57.67 2.31 57.34 4.62 57 7 C47.5968033 6.59487361 38.37848531 6.02163671 29.07421875 4.53515625 C22.40119006 3.56883856 15.63396506 3.22564001 8.90966797 2.78540039 C7.90178223 2.71184326 6.89389648 2.63828613 5.85546875 2.5625 C4.94434326 2.50191406 4.03321777 2.44132812 3.09448242 2.37890625 C2.40330322 2.25386719 1.71212402 2.12882812 1 2 C0.67 1.34 0.34 0.68 0 0 Z " fill="#E1E1E1" transform="translate(289,297)"/>
<path d="M0 0 C2.31 0.66 4.62 1.32 7 2 C7 2.33 7 2.66 7 3 C5.35 3 3.7 3 2 3 C2.020625 4.0725 2.04125 5.145 2.0625 6.25 C2 10 2 10 1 14 C14.53 14 28.06 14 42 14 C41.67 16.31 41.34 18.62 41 21 C34.28093605 21.12047731 27.73916486 20.80102302 21.0625 20.0625 C19.31904777 19.87855184 17.57555837 19.69495568 15.83203125 19.51171875 C15.00396973 19.42325684 14.1759082 19.33479492 13.32275391 19.24365234 C8.8863709 18.77828444 4.44333777 18.39205922 0 18 C0 12.06 0 6.12 0 0 Z " fill="#F6F6F6" transform="translate(297,328)"/>
<path d="M0 0 C14.19 0 28.38 0 43 0 C42 4 42 4 41 7 C32.12254357 7.26067572 23.59852013 6.73412253 14.79248047 5.71582031 C9.15519638 5.07781104 3.67875194 4.81381141 -2 5 C-1.34 3.35 -0.68 1.7 0 0 Z " fill="#D7D7D7" transform="translate(757,388)"/>
<path d="M0 0 C19.47 0 38.94 0 59 0 C59 1.98 59 3.96 59 6 C55.71542667 7.09485778 53.77132177 6.97512541 50.34375 6.6953125 C49.23902344 6.60636719 48.13429688 6.51742188 46.99609375 6.42578125 C45.84238281 6.32652344 44.68867187 6.22726562 43.5 6.125 C41.76943359 5.98771484 41.76943359 5.98771484 40.00390625 5.84765625 C31.40604377 5.13534792 31.40604377 5.13534792 28 4 C26.20282322 3.80770438 24.40089533 3.65824476 22.59765625 3.53515625 C21.54255859 3.45716797 20.48746094 3.37917969 19.40039062 3.29882812 C17.17928923 3.14157051 14.9579301 2.98791072 12.73632812 2.83789062 C11.15174805 2.71897461 11.15174805 2.71897461 9.53515625 2.59765625 C8.569729 2.53070557 7.60430176 2.46375488 6.60961914 2.39477539 C4 2 4 2 0 0 Z " fill="#E2E2E2" transform="translate(630,358)"/>
<path d="M0 0 C19.8 0 39.6 0 60 0 C60 2.31 60 4.62 60 7 C52.49634566 6.62968979 45.05216445 6.24748729 37.625 5.0625 C29.42463481 3.77523337 21.16594309 3.29461585 12.88525391 2.78540039 C11.79647949 2.71184326 10.70770508 2.63828613 9.5859375 2.5625 C8.11713135 2.47162109 8.11713135 2.47162109 6.61865234 2.37890625 C4 2 4 2 0 0 Z " fill="#E4E4E4" transform="translate(142,358)"/>
<path d="M0 0 C15.18 0.33 30.36 0.66 46 1 C45.67 3.31 45.34 5.62 45 8 C35.35130169 8.31441787 25.93907518 7.11790328 16.375 6 C14.68625656 5.80677844 12.9974548 5.61406588 11.30859375 5.421875 C7.20503305 4.95378393 3.10232369 4.47880606 -1 4 C-0.67 2.68 -0.34 1.36 0 0 Z " fill="#E1E1E1" transform="translate(288,372)"/>
<path d="M0 0 C22.44 0 44.88 0 68 0 C68 1.98 68 3.96 68 6 C67.67 6.33 67.34 6.66 67 7 C64.52552534 6.96008912 62.09233326 6.85115105 59.625 6.6875 C58.88000244 6.64117432 58.13500488 6.59484863 57.36743164 6.54711914 C48.55240757 5.96152162 39.77694912 4.99234441 31 4 C31.33 3.34 31.66 2.68 32 2 C27.94323508 1.95045289 23.88658806 1.914211 19.82958984 1.89013672 C18.45032685 1.88009747 17.07108504 1.86646323 15.69189453 1.84912109 C13.7061486 1.82478246 11.7202455 1.81456745 9.734375 1.8046875 C8.54038086 1.79421387 7.34638672 1.78374023 6.11621094 1.77294922 C3.14201836 1.98965238 1.49681621 2.43813878 -1 4 C-0.67 2.68 -0.34 1.36 0 0 Z " fill="#EBEBEB" transform="translate(514,297)"/>
<path d="M0 0 C1.47095879 0.0001133 1.47095879 0.0001133 2.97163391 0.00022888 C4.54064705 0.00797081 4.54064705 0.00797081 6.14135742 0.01586914 C7.22188889 0.01728409 8.30242035 0.01869904 9.41569519 0.02015686 C12.85943393 0.02574459 16.30310715 0.0382949 19.74682617 0.05102539 C22.08471586 0.05604197 24.42260656 0.0606046 26.76049805 0.06469727 C32.4851297 0.07571001 38.20972325 0.09243598 43.93432617 0.11352539 C43.93432617 2.42352539 43.93432617 4.73352539 43.93432617 7.11352539 C41.39238457 6.97163554 38.85084624 6.82513384 36.30932617 6.67602539 C35.59647461 6.63670898 34.88362305 6.59739258 34.14916992 6.55688477 C31.02232824 6.37042173 27.99989364 6.12452381 24.90698242 5.60571289 C21.27749262 5.0047724 17.66529913 4.84083901 13.99682617 4.67602539 C5.89678993 4.2636761 -2.04585114 3.31591511 -10.06567383 2.11352539 C-10.06567383 1.78352539 -10.06567383 1.45352539 -10.06567383 1.11352539 C-6.64767621 0.34190749 -3.50129232 -0.00904727 0 0 Z " fill="#F2F2F2" transform="translate(760.065673828125,357.886474609375)"/>
<path d="M0 0 C19.8 0 39.6 0 60 0 C60 1.98 60 3.96 60 6 C56.88103937 7.03965354 55.29080205 6.99984912 52.0703125 6.6953125 C51.10996094 6.60636719 50.14960937 6.51742188 49.16015625 6.42578125 C48.15855469 6.32652344 47.15695312 6.22726562 46.125 6.125 C44.63419922 5.98771484 44.63419922 5.98771484 43.11328125 5.84765625 C35.69742193 5.14280215 35.69742193 5.14280215 32.53662109 4.49560547 C29.75645557 3.95241625 27.04369726 3.70611993 24.21875 3.5 C23.12949219 3.4175 22.04023437 3.335 20.91796875 3.25 C19.79003906 3.1675 18.66210938 3.085 17.5 3 C15.260207 2.83617514 13.02061246 2.66960852 10.78125 2.5 C9.79189453 2.4278125 8.80253906 2.355625 7.78320312 2.28125 C5.13506372 2.01364854 2.59824942 1.56947932 0 1 C0 0.67 0 0.34 0 0 Z " fill="#E6E6E6" transform="translate(533,358)"/>
<path d="M0 0 C0.33 0.66 0.66 1.32 1 2 C15.19 2 29.38 2 44 2 C43.67 4.31 43.34 6.62 43 9 C32.99573134 8.56995225 23.02846183 7.99217832 13.0625 7 C12.21719727 6.9170166 11.37189453 6.8340332 10.50097656 6.74853516 C6.90603701 6.37677079 3.49701079 5.9399777 0 5 C0 3.35 0 1.7 0 0 Z " fill="#E0E0E0" transform="translate(758,371)"/>
<path d="M0 0 C1.38294718 0.01329757 2.76582404 0.03715018 4.1484375 0.0703125 C4.85484375 0.07933594 5.56125 0.08835937 6.2890625 0.09765625 C8.03399848 0.12123647 9.77876045 0.15710789 11.5234375 0.1953125 C11.5234375 1.1853125 11.5234375 2.1753125 11.5234375 3.1953125 C7.2334375 3.1953125 2.9434375 3.1953125 -1.4765625 3.1953125 C-1.4765625 5.8353125 -1.4765625 8.4753125 -1.4765625 11.1953125 C2.4834375 11.1953125 6.4434375 11.1953125 10.5234375 11.1953125 C10.1934375 12.5153125 9.8634375 13.8353125 9.5234375 15.1953125 C5.8934375 15.1953125 2.2634375 15.1953125 -1.4765625 15.1953125 C-1.4765625 18.1653125 -1.4765625 21.1353125 -1.4765625 24.1953125 C2.8134375 24.1953125 7.1034375 24.1953125 11.5234375 24.1953125 C11.5234375 25.1853125 11.5234375 26.1753125 11.5234375 27.1953125 C9.25318782 27.27628574 6.98211675 27.33448954 4.7109375 27.3828125 C2.81408203 27.43501953 2.81408203 27.43501953 0.87890625 27.48828125 C-2.4765625 27.1953125 -2.4765625 27.1953125 -4.16357422 25.99169922 C-5.90653418 23.60703961 -5.84964461 22.09696959 -5.83984375 19.16015625 C-5.83919922 18.18626953 -5.83855469 17.21238281 -5.83789062 16.20898438 C-5.82177734 15.19384766 -5.80566406 14.17871094 -5.7890625 13.1328125 C-5.79228516 12.11380859 -5.79550781 11.09480469 -5.79882812 10.04492188 C-5.72795046 0.32179497 -5.72795046 0.32179497 0 0 Z " fill="#C7C7C7" transform="translate(557.4765625,418.8046875)"/>
<path d="M0 0 C8.26315789 0 8.26315789 0 11 2 C12.02835363 5.08506088 12.13368434 7.2694272 12.125 10.5 C12.12757813 11.4590625 12.13015625 12.418125 12.1328125 13.40625 C12 16 12 16 11 19 C9 20 9 20 0 20 C0 13.4 0 6.8 0 0 Z " fill="#050505" transform="translate(531,422)"/>
<path d="M0 0 C1.26108078 0.0001133 1.26108078 0.0001133 2.54763794 0.00022888 C3.91020218 0.00797081 3.91020218 0.00797081 5.30029297 0.01586914 C6.22969696 0.01728409 7.15910095 0.01869904 8.1166687 0.02015686 C11.09197171 0.02576486 14.06720011 0.03831871 17.04248047 0.05102539 C19.0568023 0.05603936 21.07112531 0.06060245 23.08544922 0.06469727 C28.02948849 0.07573689 32.97347182 0.0930069 37.91748047 0.11352539 C37.96002403 2.11307285 37.9582883 4.11394175 37.91748047 6.11352539 C37.58748047 6.44352539 37.25748047 6.77352539 36.91748047 7.11352539 C28.32597204 6.96238925 19.85380058 5.88774559 11.37060547 4.59008789 C5.90622032 3.83595329 0.4206812 3.46090351 -5.08251953 3.11352539 C-5.41251953 4.76352539 -5.74251953 6.41352539 -6.08251953 8.11352539 C-7.01675598 5.10320795 -7.12701864 4.24702272 -6.08251953 1.11352539 C-3.79620459 -0.02963208 -2.53904547 -0.00760193 0 0 Z " fill="#EDEDED" transform="translate(298.08251953125,357.886474609375)"/>
<path d="M0 0 C0.33 1.32 0.66 2.64 1 4 C12.88 4 24.76 4 37 4 C35 9 35 9 34 11 C22.09247832 11.36701265 10.72425622 10.01142572 -1 8 C-1 7.67 -1 7.34 -1 7 C0.98 7 2.96 7 5 7 C5 6.34 5 5.68 5 5 C3.35 5 1.7 5 0 5 C0 3.35 0 1.7 0 0 Z " fill="#D4D4D4" transform="translate(403,384)"/>
<path d="M0 0 C13.86 0.33 27.72 0.66 42 1 C41.67 3.31 41.34 5.62 41 8 C33.1379334 8.2713982 25.69473066 7.2207019 17.9375 6 C16.69033203 5.80921875 15.44316406 5.6184375 14.15820312 5.421875 C11.10449776 4.95387418 8.05187356 4.47977609 5 4 C5 3.34 5 2.68 5 2 C3.35 2 1.7 2 0 2 C0 1.34 0 0.68 0 0 Z " fill="#ECECEC" transform="translate(538,311)"/>
<path d="M0 0 C12.54 0 25.08 0 38 0 C38 2.31 38 4.62 38 7 C30.88235641 7.11156181 23.90148786 6.68064922 16.8125 6.0625 C15.23178711 5.93198242 15.23178711 5.93198242 13.61914062 5.79882812 C8.70424794 5.38073707 3.85052376 4.92989316 -1 4 C-1 3.67 -1 3.34 -1 3 C4.445 2.505 4.445 2.505 10 2 C6.7 1.67 3.4 1.34 0 1 C0 0.67 0 0.34 0 0 Z " fill="#E2E2E2" transform="translate(659,312)"/>
<path d="M0 0 C13.86 0 27.72 0 42 0 C43.04449911 3.13349732 42.93423645 3.98968256 42 7 C39.64551325 7.05454409 37.29232125 7.0939279 34.9375 7.125 C33.62652344 7.14820313 32.31554687 7.17140625 30.96484375 7.1953125 C26.88175701 6.99417522 23.85000947 6.27165462 20 5 C20.66 4.01 21.32 3.02 22 2 C14.74 1.67 7.48 1.34 0 1 C0 0.67 0 0.34 0 0 Z " fill="#D5D5D5" transform="translate(299,327)"/>
<path d="M0 0 C19.8 0 39.6 0 60 0 C59.67 0.99 59.34 1.98 59 3 C59 2.34 59 1.68 59 1 C50.42 1.33 41.84 1.66 33 2 C32.67 2.66 32.34 3.32 32 4 C32.99 4.33 33.98 4.66 35 5 C23.23943355 4.51423747 11.65565449 3.65590678 0 2 C0 1.34 0 0.68 0 0 Z " fill="#C0C0C0" transform="translate(149,327)"/>
<path d="M0 0 C6.93 0 13.86 0 21 0 C21 0.99 21 1.98 21 3 C18.03 3 15.06 3 12 3 C12 10.59 12 18.18 12 26 C11.01 26 10.02 26 9 26 C9 18.41 9 10.82 9 3 C6.03 3 3.06 3 0 3 C0 2.01 0 1.02 0 0 Z " fill="#D5D5D5" transform="translate(456,419)"/>
<path d="M0 0 C3.3997571 1.40679604 5.0916179 2.84982561 7 6 C7.76872976 11.41125455 7.5030178 16.51609749 5.75 21.6875 C4 24 4 24 1.8125 24.875 C1.214375 24.91625 0.61625 24.9575 0 25 C0 24.34 0 23.68 0 23 C-3.3 23 -6.6 23 -10 23 C-10 16.07 -10 9.14 -10 2 C-9.67 2 -9.34 2 -9 2 C-9 8.6 -9 15.2 -9 22 C-5.37 21.67 -1.74 21.34 2 21 C2 15.39 2 9.78 2 4 C0.68 3.34 -0.64 2.68 -2 2 C-1.34 1.34 -0.68 0.68 0 0 Z " fill="#C5C5C5" transform="translate(540,420)"/>
<path d="M0 0 C0.98613281 0.00322266 1.97226562 0.00644531 2.98828125 0.00976562 C4.02082031 0.01814453 5.05335938 0.02652344 6.1171875 0.03515625 C7.67759766 0.04192383 7.67759766 0.04192383 9.26953125 0.04882812 C11.84380712 0.06063673 14.41796896 0.0771055 16.9921875 0.09765625 C16.9921875 1.74765625 16.9921875 3.39765625 16.9921875 5.09765625 C3.427342 5.5892681 -9.6004581 4.10262718 -23.0078125 2.09765625 C-23.0078125 1.76765625 -23.0078125 1.43765625 -23.0078125 1.09765625 C-21.87601563 1.10925781 -20.74421875 1.12085938 -19.578125 1.1328125 C-18.09635581 1.14219079 -16.61458485 1.15129095 -15.1328125 1.16015625 C-14.38644531 1.16853516 -13.64007812 1.17691406 -12.87109375 1.18554688 C-8.29527842 1.20615866 -4.53380476 -0.02605635 0 0 Z " fill="#DEDEDE" transform="translate(789.0078125,343.90234375)"/>
<path d="M0 0 C0.33 0.66 0.66 1.32 1 2 C20.47 2 39.94 2 60 2 C60 4.31 60 6.62 60 9 C59.67 9 59.34 9 59 9 C59 7.02 59 5.04 59 3 C47.12 3.33 35.24 3.66 23 4 C26.3 4.66 29.6 5.32 33 6 C33 6.33 33 6.66 33 7 C26.21029594 7.19585685 19.71952088 6.4335004 13 5.5 C11.93910156 5.35691406 10.87820313 5.21382813 9.78515625 5.06640625 C7.18942757 4.7156321 4.59445445 4.36005716 2 4 C2 5.98 2 7.96 2 10 C1.67 10 1.34 10 1 10 C0.67 6.7 0.34 3.4 0 0 Z " fill="#8E8E8E" transform="translate(528,386)"/>
<path d="M0 0 C-0.875 4.75 -0.875 4.75 -2 7 C-6.95 6.67 -11.9 6.34 -17 6 C-17 5.34 -17 4.68 -17 4 C-17.9075 4.061875 -18.815 4.12375 -19.75 4.1875 C-23.36429542 3.97898296 -24.30053343 3.23586253 -27 1 C-24.18766245 0.8301069 -21.37518151 0.66401768 -18.5625 0.5 C-17.77939453 0.45230469 -16.99628906 0.40460938 -16.18945312 0.35546875 C-10.78341953 0.04401002 -5.41503945 -0.04336368 0 0 Z " fill="#F9F9F9" transform="translate(465,343)"/>
<path d="M0 0 C1.65 0 3.3 0 5 0 C5.67260351 1.76858691 6.33788395 3.53996016 7 5.3125 C7.37125 6.29863281 7.7425 7.28476562 8.125 8.30078125 C9 11 9 11 9 14 C8.34 14 7.68 14 7 14 C6.67 14.99 6.34 15.98 6 17 C4.68 13.04 3.36 9.08 2 5 C1.54625 6.60875 1.0925 8.2175 0.625 9.875 C-0.75 14.75 -0.75 14.75 -3 17 C-3.99 17.33 -4.98 17.66 -6 18 C-4.23536928 11.89262558 -2.30442525 5.92566493 0 0 Z " fill="#CCCCCC" transform="translate(510,419)"/>
<path d="M0 0 C0.33 1.32 0.66 2.64 1 4 C5.62 4 10.24 4 15 4 C15 4.33 15 4.66 15 5 C20.28 5 25.56 5 31 5 C31 5.66 31 6.32 31 7 C32.32 7.66 33.64 8.32 35 9 C28.30497209 9.15664867 22.05114434 8.53658952 15.4375 7.5625 C0.34938109 5.48400993 -14.79366442 5.26282914 -30 5 C-30 4.67 -30 4.34 -30 4 C-20.1 4 -10.2 4 0 4 C0 2.68 0 1.36 0 0 Z " fill="#ABABAB" transform="translate(401,354)"/>
<path d="M0 0 C3.3 0 6.6 0 10 0 C7 2 7 2 3 2 C3 5.3 3 8.6 3 12 C5.97 12 8.94 12 12 12 C12 12.66 12 13.32 12 14 C9.03 14 6.06 14 3 14 C3 17.96 3 21.92 3 26 C2.01 26 1.02 26 0 26 C0 17.42 0 8.84 0 0 Z " fill="#ECECEC" transform="translate(481,420)"/>
<path d="M0 0 C1.258125 -0.04125 2.51625 -0.0825 3.8125 -0.125 C4.52019531 -0.14820313 5.22789062 -0.17140625 5.95703125 -0.1953125 C8 0 8 0 11 2 C11.3125 5 11.3125 5 11 8 C9 10 9 10 6.8359375 10.1953125 C4.55729167 10.13020833 2.27864583 10.06510417 0 10 C0 6.7 0 3.4 0 0 Z " fill="#070506" transform="translate(484,422)"/>
<path d="M0 0 C0.33 0 0.66 0 1 0 C1 1.65 1 3.3 1 5 C20.8 5 40.6 5 61 5 C60.67 6.32 60.34 7.64 60 9 C60 8.01 60 7.02 60 6 C46.8 6 33.6 6 20 6 C20 6.66 20 7.32 20 8 C13.07 8 6.14 8 -1 8 C-0.67 5.36 -0.34 2.72 0 0 Z " fill="#BEBEBE" transform="translate(626,368)"/>
<path d="M0 0 C19.14 0 38.28 0 58 0 C57.67 0.66 57.34 1.32 57 2 C38.685 1.505 38.685 1.505 20 1 C20 1.66 20 2.32 20 3 C21.32 3.33 22.64 3.66 24 4 C15.83759432 4.33853295 8.04927976 3.29901921 0 2 C0 1.34 0 0.68 0 0 Z " fill="#A1A1A1" transform="translate(404,327)"/>
<path d="M0 0 C20.46 0 40.92 0 62 0 C61.67 2.31 61.34 4.62 61 7 C56.38 7 51.76 7 47 7 C47 6.67 47 6.34 47 6 C51.29 6 55.58 6 60 6 C60 4.68 60 3.36 60 2 C45.15 2 30.3 2 15 2 C15 2.33 15 2.66 15 3 C9.47322267 3.19392201 5.24385089 2.7479503 0 1 C0 0.67 0 0.34 0 0 Z " fill="#A7A7A7" transform="translate(537,327)"/>
<path d="M0 0 C1.17426264 2.34852528 1.11508173 3.73774065 1.09765625 6.3515625 C1.09443359 7.20234375 1.09121094 8.053125 1.08789062 8.9296875 C1.07951172 9.81914062 1.07113281 10.70859375 1.0625 11.625 C1.05798828 12.5221875 1.05347656 13.419375 1.04882812 14.34375 C1.03702591 16.56256648 1.02056155 18.78125018 1 21 C1.33 18.36 1.66 15.72 2 13 C5.96 13 9.92 13 14 13 C14 13.33 14 13.66 14 14 C10.37 14 6.74 14 3 14 C3 16.97 3 19.94 3 23 C7.29 23 11.58 23 16 23 C16 23.99 16 24.98 16 26 C13.72975032 26.08097324 11.45867925 26.13917704 9.1875 26.1875 C7.29064453 26.23970703 7.29064453 26.23970703 5.35546875 26.29296875 C2 26 2 26 0.31079102 24.79858398 C-1.43770692 22.39940643 -1.35878001 20.88049683 -1.328125 17.9296875 C-1.32296875 16.95128906 -1.3178125 15.97289062 -1.3125 14.96484375 C-1.291875 13.94519531 -1.27125 12.92554688 -1.25 11.875 C-1.24484375 10.84761719 -1.2396875 9.82023437 -1.234375 8.76171875 C-1.15397613 1.15397613 -1.15397613 1.15397613 0 0 Z " fill="#B3B3B3" transform="translate(553,420)"/>
<path d="M0 0 C6.27 0 12.54 0 19 0 C19 1.98 19 3.96 19 6 C11.91923749 6.40850553 5.80074041 4.90420731 -1 3 C-0.67 2.01 -0.34 1.02 0 0 Z " fill="#F3F3F3" transform="translate(795,298)"/>
<path d="M0 0 C22.44 0 44.88 0 68 0 C68 0.33 68 0.66 68 1 C58.1 1.33 48.2 1.66 38 2 C38.66 2.66 39.32 3.32 40 4 C37.03 4 34.06 4 31 4 C31.33 3.34 31.66 2.68 32 2 C27.94323508 1.95045289 23.88658806 1.914211 19.82958984 1.89013672 C18.45032685 1.88009747 17.07108504 1.86646323 15.69189453 1.84912109 C13.7061486 1.82478246 11.7202455 1.81456745 9.734375 1.8046875 C8.54038086 1.79421387 7.34638672 1.78374023 6.11621094 1.77294922 C3.14201836 1.98965238 1.49681621 2.43813878 -1 4 C-0.67 2.68 -0.34 1.36 0 0 Z " fill="#DCDCDC" transform="translate(514,297)"/>
<path d="M0 0 C5.28 0 10.56 0 16 0 C16 1.98 16 3.96 16 6 C10.06 5.67 4.12 5.34 -2 5 C-1.34 3.35 -0.68 1.7 0 0 Z " fill="#F1F1F1" transform="translate(194,313)"/>
<path d="M0 0 C1.47095879 0.0001133 1.47095879 0.0001133 2.97163391 0.00022888 C4.54064705 0.00797081 4.54064705 0.00797081 6.14135742 0.01586914 C7.22188889 0.01728409 8.30242035 0.01869904 9.41569519 0.02015686 C12.85943393 0.02574459 16.30310715 0.0382949 19.74682617 0.05102539 C22.08471586 0.05604197 24.42260656 0.0606046 26.76049805 0.06469727 C32.4851297 0.07571001 38.20972325 0.09243598 43.93432617 0.11352539 C43.93432617 2.42352539 43.93432617 4.73352539 43.93432617 7.11352539 C41.62432617 7.11352539 39.31432617 7.11352539 36.93432617 7.11352539 C36.93432617 6.78352539 36.93432617 6.45352539 36.93432617 6.11352539 C38.91432617 6.11352539 40.89432617 6.11352539 42.93432617 6.11352539 C42.93432617 4.46352539 42.93432617 2.81352539 42.93432617 1.11352539 C30.72432617 1.44352539 18.51432617 1.77352539 5.93432617 2.11352539 C8.24432617 2.44352539 10.55432617 2.77352539 12.93432617 3.11352539 C12.93432617 3.44352539 12.93432617 3.77352539 12.93432617 4.11352539 C5.15982993 4.43085177 -2.39559618 3.23207838 -10.06567383 2.11352539 C-10.06567383 1.78352539 -10.06567383 1.45352539 -10.06567383 1.11352539 C-6.64767621 0.34190749 -3.50129232 -0.00904727 0 0 Z " fill="#D5D5D5" transform="translate(760.065673828125,357.886474609375)"/>
<path d="M0 0 C21.45 0 42.9 0 65 0 C64.67 0.99 64.34 1.98 64 3 C64 2.34 64 1.68 64 1 C46.51 1.33 29.02 1.66 11 2 C11 2.33 11 2.66 11 3 C9.741875 3.020625 8.48375 3.04125 7.1875 3.0625 C6.47980469 3.07410156 5.77210938 3.08570313 5.04296875 3.09765625 C3 3 3 3 0 2 C0 1.34 0 0.68 0 0 Z " fill="#3B3B3B" transform="translate(136,372)"/>
<path d="M0 0 C6.27 0 12.54 0 19 0 C19 1.65 19 3.3 19 5 C16.41633755 4.85879984 13.83317115 4.71221667 11.25 4.5625 C10.52039063 4.52318359 9.79078125 4.48386719 9.0390625 4.44335938 C5.5727027 4.23852902 2.34666974 3.9147998 -1 3 C-0.67 2.01 -0.34 1.02 0 0 Z " fill="#FAFAFA" transform="translate(435,298)"/>
<path d="M0 0 C1.26108078 0.0001133 1.26108078 0.0001133 2.54763794 0.00022888 C3.91020218 0.00797081 3.91020218 0.00797081 5.30029297 0.01586914 C6.22969696 0.01728409 7.15910095 0.01869904 8.1166687 0.02015686 C11.09197171 0.02576486 14.06720011 0.03831871 17.04248047 0.05102539 C19.0568023 0.05603936 21.07112531 0.06060245 23.08544922 0.06469727 C28.02948849 0.07573689 32.97347182 0.0930069 37.91748047 0.11352539 C37.91748047 2.09352539 37.91748047 4.07352539 37.91748047 6.11352539 C37.58748047 6.11352539 37.25748047 6.11352539 36.91748047 6.11352539 C36.91748047 4.46352539 36.91748047 2.81352539 36.91748047 1.11352539 C26.68748047 1.11352539 16.45748047 1.11352539 5.91748047 1.11352539 C5.91748047 1.77352539 5.91748047 2.43352539 5.91748047 3.11352539 C2.28748047 3.11352539 -1.34251953 3.11352539 -5.08251953 3.11352539 C-5.41251953 4.76352539 -5.74251953 6.41352539 -6.08251953 8.11352539 C-7.01675598 5.10320795 -7.12701864 4.24702272 -6.08251953 1.11352539 C-3.79620459 -0.02963208 -2.53904547 -0.00760193 0 0 Z " fill="#DDDDDD" transform="translate(298.08251953125,357.886474609375)"/>
<path d="M0 0 C1.485 0.99 1.485 0.99 3 2 C3 2.99 3 3.98 3 5 C19.17 5 35.34 5 52 5 C52 7.31 52 9.62 52 12 C51.67 12 51.34 12 51 12 C51 10.02 51 8.04 51 6 C37.8 6.33 24.6 6.66 11 7 C11 7.33 11 7.66 11 8 C8.69 8.33 6.38 8.66 4 9 C4 8.34 4 7.68 4 7 C3.01 6.67 2.02 6.34 1 6 C0.67 4.02 0.34 2.04 0 0 Z " fill="#D3D3D3" transform="translate(292,307)"/>
<path d="M0 0 C0.82062424 0.00015106 1.64124847 0.00030212 2.48674011 0.00045776 C3.80875175 0.01594162 3.80875175 0.01594162 5.1574707 0.03173828 C6.5161602 0.03598312 6.5161602 0.03598312 7.90229797 0.04031372 C10.79608353 0.05151114 13.6895599 0.07661489 16.58325195 0.10205078 C18.54483603 0.11208115 20.50642495 0.1212069 22.46801758 0.12939453 C27.27738155 0.15144905 32.08651432 0.18597589 36.89575195 0.22705078 C35.02075195 5.10205078 35.02075195 5.10205078 33.89575195 6.22705078 C32.2295808 6.2676891 30.561871 6.26977178 28.89575195 6.22705078 C29.88575195 5.89705078 30.87575195 5.56705078 31.89575195 5.22705078 C31.23575195 4.89705078 30.57575195 4.56705078 29.89575195 4.22705078 C29.89575195 3.56705078 29.89575195 2.90705078 29.89575195 2.22705078 C17.68575195 2.22705078 5.47575195 2.22705078 -7.10424805 2.22705078 C-4.03653614 0.18190951 -3.44856757 -0.02122195 0 0 Z " fill="#EBEBEB" transform="translate(420.104248046875,357.77294921875)"/>
<path d="M0 0 C7.59 0 15.18 0 23 0 C22.67 0.99 22.34 1.98 22 3 C25.3 3.33 28.6 3.66 32 4 C32 4.33 32 4.66 32 5 C5.72554003 3.81702668 5.72554003 3.81702668 0 0 Z " fill="#DDDDDD" transform="translate(772,298)"/>
<path d="M0 0 C2.31 0.66 4.62 1.32 7 2 C7 2.33 7 2.66 7 3 C5.35 3 3.7 3 2 3 C2.020625 4.0725 2.04125 5.145 2.0625 6.25 C2 10 2 10 1 14 C14.53 14 28.06 14 42 14 C42 14.33 42 14.66 42 15 C28.14 15 14.28 15 0 15 C0 10.05 0 5.1 0 0 Z " fill="#828282" transform="translate(297,328)"/>
<path d="M0 0 C2.348433 3.66428651 2.18830139 6.66475632 1.9375 10.9375 C1.88464844 12.14277344 1.83179688 13.34804688 1.77734375 14.58984375 C0.78865811 18.92714305 -0.36348861 20.44772551 -4 23 C-6.80879138 23.56650006 -9.46227532 23.47806265 -12.3125 23.3125 C-13.05306641 23.28994141 -13.79363281 23.26738281 -14.55664062 23.24414062 C-16.37197357 23.1855815 -18.18625681 23.09590886 -20 23 C-19.67 21.68 -19.34 20.36 -19 19 C-19 19.99 -19 20.98 -19 22 C-17.06215735 21.85879286 -15.12473045 21.71187127 -13.1875 21.5625 C-12.10855469 21.48128906 -11.02960937 21.40007812 -9.91796875 21.31640625 C-6.94010095 21.09787539 -6.94010095 21.09787539 -4 20 C-1.77891226 16.76657976 -1.62584269 13.59625455 -1.375 9.75 C-1.189375 6.90375 -1.189375 6.90375 -1 4 C-5.95 3.67 -10.9 3.34 -16 3 C-16 2.67 -16 2.34 -16 2 C-14.92878906 1.93941406 -13.85757813 1.87882812 -12.75390625 1.81640625 C-11.35675609 1.73201463 -9.95962143 1.64736594 -8.5625 1.5625 C-7.50192383 1.50352539 -7.50192383 1.50352539 -6.41992188 1.44335938 C-2.91309581 1.52375562 -2.91309581 1.52375562 0 0 Z " fill="#BCBCBC" transform="translate(862,320)"/>
<path d="M0 0 C19.8 0 39.6 0 60 0 C60 0.33 60 0.66 60 1 C59.31983826 1.00808685 58.63967651 1.01617371 57.93890381 1.02450562 C50.86614128 1.11049598 43.79366079 1.20999747 36.72119141 1.31738281 C34.08094007 1.35568967 31.44063624 1.39053949 28.80029297 1.421875 C25.00729599 1.46748789 21.21466095 1.52548956 17.421875 1.5859375 C16.23946228 1.59748871 15.05704956 1.60903992 13.83880615 1.62094116 C12.73796692 1.64081085 11.63712769 1.66068054 10.50292969 1.68115234 C9.05064972 1.70113785 9.05064972 1.70113785 7.56903076 1.7215271 C4.91404329 2.00931737 3.3145338 2.72637584 1 4 C0.34 4 -0.32 4 -1 4 C-0.67 2.68 -0.34 1.36 0 0 Z " fill="#323232" transform="translate(629,357)"/>
<path d="M0 0 C2.8203125 -0.29296875 2.8203125 -0.29296875 6.125 -0.1875 C7.76855469 -0.14689453 7.76855469 -0.14689453 9.4453125 -0.10546875 C10.28835938 -0.07066406 11.13140625 -0.03585937 12 0 C11.67 0.99 11.34 1.98 11 3 C17.6 3.66 24.2 4.32 31 5 C31.33 3.68 31.66 2.36 32 1 C32 2.65 32 4.3 32 6 C24.52725321 6.19018656 17.34481897 5.4488891 9.9375 4.5 C8.78572266 4.35691406 7.63394531 4.21382813 6.44726562 4.06640625 C3.63086114 3.71581648 0.81518341 3.36024128 -2 3 C-1.34 2.01 -0.68 1.02 0 0 Z " fill="#CACACA" transform="translate(423,298)"/>
<path d="M0 0 C7.59 0 15.18 0 23 0 C23.33 0.66 23.66 1.32 24 2 C22.02 2.33 20.04 2.66 18 3 C18 3.33 18 3.66 18 4 C11.71739294 4.23268915 6.11980533 3.40454548 0 2 C0 1.34 0 0.68 0 0 Z " fill="#F1F1F1" transform="translate(424,328)"/>
<path d="M0 0 C10.56 0 21.12 0 32 0 C29.0041618 2.9958382 26.36937858 3.15643661 22.3125 3.1875 C14.80596518 3.13705286 7.42051987 2.04278322 0 1 C0 0.67 0 0.34 0 0 Z " fill="#FAFAFA" transform="translate(298,313)"/>
<path d="M0 0 C9.57 0 19.14 0 29 0 C28.67 0.99 28.34 1.98 28 3 C18.40432207 3.23889655 9.46850826 2.78831859 0 1 C0 0.67 0 0.34 0 0 Z " fill="#FAFAFA" transform="translate(415,313)"/>
<path d="M0 0 C13.86 0 27.72 0 42 0 C41.67 0.66 41.34 1.32 41 2 C31.76 2 22.52 2 13 2 C13.99 2.66 14.98 3.32 16 4 C10.72 3.67 5.44 3.34 0 3 C0 2.01 0 1.02 0 0 Z " fill="#EAEAEA" transform="translate(297,343)"/>
<path d="M0 0 C0.83265381 0.00523682 1.66530762 0.01047363 2.52319336 0.01586914 C3.42231445 0.0190918 4.32143555 0.02231445 5.24780273 0.02563477 C6.66609375 0.03820312 6.66609375 0.03820312 8.11303711 0.05102539 C9.06243164 0.05553711 10.01182617 0.06004883 10.98999023 0.06469727 C13.34356776 0.07652429 15.69702188 0.09300514 18.05053711 0.11352539 C16.52709961 2.12133789 16.52709961 2.12133789 14.05053711 4.11352539 C11.31310747 4.29760417 9.10867176 4.27637125 6.42553711 3.98852539 C5.74491211 3.93954102 5.06428711 3.89055664 4.36303711 3.84008789 C-0.65965634 3.40333194 -0.65965634 3.40333194 -2.94946289 1.11352539 C-1.94946289 0.11352539 -1.94946289 0.11352539 0 0 Z " fill="#EEEEEE" transform="translate(304.949462890625,327.886474609375)"/>
<path d="M0 0 C1.32 0 2.64 0 4 0 C4 0.66 4 1.32 4 2 C9.94 2.33 15.88 2.66 22 3 C22 3.33 22 3.66 22 4 C20.35 4 18.7 4 17 4 C17 4.66 17 5.32 17 6 C15.68 5.67 14.36 5.34 13 5 C12.01 6.485 12.01 6.485 11 8 C10.34 7.34 9.68 6.68 9 6 C7.31238142 5.39688385 5.59985524 4.86149763 3.875 4.375 C2.50988281 3.98441406 2.50988281 3.98441406 1.1171875 3.5859375 C0.41851562 3.39257812 -0.28015625 3.19921875 -1 3 C-0.67 2.01 -0.34 1.02 0 0 Z " fill="#0D0D0D" transform="translate(278,296)"/>
<path d="M0 0 C1.57554035 2.88628401 2.46276373 5.53342384 3.125 8.75 C3.29257812 9.54921875 3.46015625 10.3484375 3.6328125 11.171875 C3.81457031 12.07679688 3.81457031 12.07679688 4 13 C1.36 13 -1.28 13 -4 13 C-3.52511102 11.01980257 -3.04497141 9.04086365 -2.5625 7.0625 C-2.29566406 5.96035156 -2.02882813 4.85820312 -1.75390625 3.72265625 C-1 1 -1 1 0 0 Z " fill="#232323" transform="translate(512,423)"/>
<path d="M0 0 C13.52019231 -0.37211538 13.52019231 -0.37211538 15.94921875 1.51171875 C16.29597656 2.00285156 16.64273437 2.49398438 17 3 C16.01 3 15.02 3 14 3 C13.67 3.66 13.34 4.32 13 5 C10.525 4.01 10.525 4.01 8 3 C8 2.67 8 2.34 8 2 C5.69 1.67 3.38 1.34 1 1 C1 9.58 1 18.16 1 27 C0.67 27 0.34 27 0 27 C0 18.09 0 9.18 0 0 Z " fill="#989798" transform="translate(480,419)"/>
<path d="M0 0 C0.33 0 0.66 0 1 0 C2.33053593 6.89459527 2.10704577 7.75022653 -1 15 C8.57 15 18.14 15 28 15 C28 15.33 28 15.66 28 16 C18.1 16 8.2 16 -2 16 C-1 4 -1 4 0 0 Z " fill="#E4E4E4" transform="translate(805,380)"/>
<path d="M0 0 C2.64 0 5.28 0 8 0 C7.125 4.75 7.125 4.75 6 7 C1.05 6.67 -3.9 6.34 -9 6 C-9 5.67 -9 5.34 -9 5 C-5.7 5 -2.4 5 1 5 C0.67 3.35 0.34 1.7 0 0 Z " fill="#CDCDCD" transform="translate(457,343)"/>
<path d="M0 0 C2.7053871 4.05808065 5 8.04889399 5 13 C3.35 12.67 1.7 12.34 0 12 C-0.33 10.02 -0.66 8.04 -1 6 C-4.63 6 -8.26 6 -12 6 C-12 5.67 -12 5.34 -12 5 C-6.555 4.505 -6.555 4.505 -1 4 C-0.67 2.68 -0.34 1.36 0 0 Z " fill="#BEBEBE" transform="translate(519,433)"/>
<path d="M0 0 C2.31 0.33 4.62 0.66 7 1 C7 2.65 7 4.3 7 6 C3.37 6 -0.26 6 -4 6 C-3.67 4.68 -3.34 3.36 -3 2 C-2.01 2 -1.02 2 0 2 C0 1.34 0 0.68 0 0 Z " fill="#DFDFDF" transform="translate(452,313)"/>
<path d="M0 0 C0.33 0 0.66 0 1 0 C1 2.64 1 5.28 1 8 C6.94 7.505 6.94 7.505 13 7 C13 7.66 13 8.32 13 9 C9.04 9 5.08 9 1 9 C1 12.3 1 15.6 1 19 C-1 17 -1 17 -1.23046875 13.59375 C-1.22647854 12.22909733 -1.21172843 10.8644434 -1.1875 9.5 C-1.18685547 8.81035156 -1.18621094 8.12070312 -1.18554688 7.41015625 C-1.14055525 2.28111049 -1.14055525 2.28111049 0 0 Z " fill="#F8F8F8" transform="translate(554,424)"/>
<path d="M0 0 C0.66 0 1.32 0 2 0 C2 7.59 2 15.18 2 23 C1.01 23 0.02 23 -1 23 C-0.67 15.41 -0.34 7.82 0 0 Z " fill="#F5F5F5" transform="translate(466,422)"/>
<path d="M0 0 C-0.08768248 1.5843317 -0.19587329 3.16753567 -0.3125 4.75 C-0.37050781 5.63171875 -0.42851562 6.5134375 -0.48828125 7.421875 C-1.0756737 10.3812568 -1.93461159 11.82177564 -4 14 C-4.99 14.33 -5.98 14.66 -7 15 C-6.79503906 14.32453125 -6.59007812 13.6490625 -6.37890625 12.953125 C-6.10949219 12.06109375 -5.84007812 11.1690625 -5.5625 10.25 C-5.16224609 8.92742187 -5.16224609 8.92742187 -4.75390625 7.578125 C-3.98316349 5.06801817 -3.98316349 5.06801817 -3.52734375 2.734375 C-3.35332031 2.16203125 -3.17929687 1.5896875 -3 1 C-1 0 -1 0 0 0 Z " fill="#D3D3D3" transform="translate(511,422)"/>
<path d="M0 0 C2.37531394 -0.0543965 4.74935883 -0.09385864 7.125 -0.125 C7.79015625 -0.14175781 8.4553125 -0.15851563 9.140625 -0.17578125 C13.52271803 -0.21874295 16.91699194 0.46887198 21 2 C23.32694964 2.37531446 25.65976685 2.71917202 28 3 C28 3.33 28 3.66 28 4 C22.31773641 4.09009251 16.82869377 3.79218444 11.1875 3.125 C10.43791016 3.04636719 9.68832031 2.96773438 8.91601562 2.88671875 C5.25795353 2.46174281 3.11360404 2.07573602 0 0 Z " fill="#BFBFBF" transform="translate(533,389)"/>
<path d="M0 0 C0 0.66 0 1.32 0 2 C1.32 2.66 2.64 3.32 4 4 C-1.76082132 4.12001711 -7.31648386 4.0149136 -13 3 C-13.33 2.34 -13.66 1.68 -14 1 C-9.23692563 0.04738513 -4.8333472 -0.08333357 0 0 Z " fill="#C0C0C0" transform="translate(432,359)"/>
<path d="M0 0 C3.54159657 -0.05841253 7.08306793 -0.09373452 10.625 -0.125 C11.62402344 -0.14175781 12.62304688 -0.15851563 13.65234375 -0.17578125 C20.58674247 -0.22170442 25.83884224 0.68245351 32 4 C30.7625 4.020625 29.525 4.04125 28.25 4.0625 C27.55390625 4.07410156 26.8578125 4.08570313 26.140625 4.09765625 C24 4 24 4 22.1640625 3.52734375 C19.84447833 2.96210212 17.61036193 2.69330403 15.234375 2.46484375 C14.34492187 2.37783203 13.45546875 2.29082031 12.5390625 2.20117188 C11.61867188 2.11416016 10.69828125 2.02714844 9.75 1.9375 C8.81414063 1.84662109 7.87828125 1.75574219 6.9140625 1.66210938 C4.60962033 1.43871957 2.30494663 1.21811272 0 1 C0 0.67 0 0.34 0 0 Z " fill="#A6A6A6" transform="translate(554,345)"/>
<path d="M0 0 C0.33 0.66 0.66 1.32 1 2 C0.67 2.66 0.34 3.32 0 4 C4.29 4 8.58 4 13 4 C13 4.33 13 4.66 13 5 C11.02 5.33 9.04 5.66 7 6 C9.97 6.495 9.97 6.495 13 7 C13 7.33 13 7.66 13 8 C8.05 7.67 3.1 7.34 -2 7 C-2.33 6.01 -2.66 5.02 -3 4 C-1.5625 1.8125 -1.5625 1.8125 0 0 Z " fill="#C7C7C7" transform="translate(767,308)"/>
<path d="M0 0 C0 0.33 0 0.66 0 1 C-16.8929385 0.03644647 -16.8929385 0.03644647 -24 -1 C-24 -1.33 -24 -1.66 -24 -2 C-15.42974272 -3.26318985 -8.32753502 -2.19145659 0 0 Z " fill="#C4C4C4" transform="translate(448,347)"/>
<path d="M0 0 C4.62 0 9.24 0 14 0 C14 0.66 14 1.32 14 2 C15.32 2.33 16.64 2.66 18 3 C12.24901786 3.10414253 6.64549608 3.20116938 1 2 C0.67 1.34 0.34 0.68 0 0 Z " fill="#BABABA" transform="translate(410,328)"/>
<path d="M0 0 C6.6 0 13.2 0 20 0 C20 0.33 20 0.66 20 1 C18.35 1.33 16.7 1.66 15 2 C15 2.33 15 2.66 15 3 C9.47322267 3.19392201 5.24385089 2.7479503 0 1 C0 0.67 0 0.34 0 0 Z " fill="#9C9C9C" transform="translate(537,327)"/>
<path d="M0 0 C2.475 0.495 2.475 0.495 5 1 C5 4.3 5 7.6 5 11 C3.68 11 2.36 11 1 11 C1.03255208 9.01432292 1.06510417 7.02864583 1.09765625 5.04296875 C1.08263217 2.79694539 1.08263217 2.79694539 0 0 Z " fill="#E2E1E1" transform="translate(493,421)"/>
<path d="M0 0 C2.39614126 -0.05425226 4.79103853 -0.09379027 7.1875 -0.125 C8.19780273 -0.15013672 8.19780273 -0.15013672 9.22851562 -0.17578125 C13.28807807 -0.21538674 16.34998815 0.19979998 20 2 C20 2.33 20 2.66 20 3 C17.22829605 2.88613541 14.45821954 2.75939222 11.6875 2.625 C10.90181641 2.5940625 10.11613281 2.563125 9.30664062 2.53125 C8.54931641 2.49257813 7.79199219 2.45390625 7.01171875 2.4140625 C6.31522217 2.3826416 5.61872559 2.3512207 4.90112305 2.31884766 C3 2 3 2 0 0 Z " fill="#CACACA" transform="translate(629,389)"/>
<path d="M0 0 C0.66 0.66 1.32 1.32 2 2 C4.32275177 2.40047444 6.65739357 2.7397104 9 3 C9 3.33 9 3.66 9 4 C1.22550376 4.31732638 -6.32992235 3.11855299 -14 2 C-14 1.67 -14 1.34 -14 1 C-9.45352102 -0.1732849 -4.66972706 -0.54128467 0 0 Z " fill="#AEAEAE" transform="translate(764,358)"/>
<path d="M0 0 C5.28 0 10.56 0 16 0 C16 0.33 16 0.66 16 1 C14.35 1.33 12.7 1.66 11 2 C11 2.33 11 2.66 11 3 C9.741875 3.020625 8.48375 3.04125 7.1875 3.0625 C6.47980469 3.07410156 5.77210938 3.08570313 5.04296875 3.09765625 C3 3 3 3 0 2 C0 1.34 0 0.68 0 0 Z " fill="#676767" transform="translate(136,372)"/>
<path d="M0 0 C3.625 0.375 3.625 0.375 7 1 C7.33 1.99 7.66 2.98 8 4 C4.6875 4.6875 4.6875 4.6875 1 5 C-0.9375 3.5625 -0.9375 3.5625 -2 2 C-1.34 1.34 -0.68 0.68 0 0 Z " fill="#6E6E6E" transform="translate(989,696)"/>
<path d="M0 0 C0.99 0.33 1.98 0.66 3 1 C1.68 3.64 0.36 6.28 -1 9 C-2.32 7.68 -3.64 6.36 -5 5 C-3.35 3.35 -1.7 1.7 0 0 Z " fill="#0E0E0E" transform="translate(467,345)"/>
<path d="M0 0 C1.9078584 3.1749094 2.1609041 5.10585211 1.625 8.75 C1.45871094 9.94882812 1.45871094 9.94882812 1.2890625 11.171875 C1.14597656 12.07679688 1.14597656 12.07679688 1 13 C0.67 13 0.34 13 0 13 C-0.33 10.03 -0.66 7.06 -1 4 C-5.95 3.67 -10.9 3.34 -16 3 C-16 2.67 -16 2.34 -16 2 C-14.92878906 1.93941406 -13.85757813 1.87882812 -12.75390625 1.81640625 C-11.35675609 1.73201463 -9.95962143 1.64736594 -8.5625 1.5625 C-7.50192383 1.50352539 -7.50192383 1.50352539 -6.41992188 1.44335938 C-2.91309581 1.52375562 -2.91309581 1.52375562 0 0 Z " fill="#B3B3B3" transform="translate(862,320)"/>
<path d="M0 0 C0.33 0 0.66 0 1 0 C1 2.97 1 5.94 1 9 C2.98 9 4.96 9 7 9 C7.33 8.01 7.66 7.02 8 6 C8.66 6 9.32 6 10 6 C10.33 4.68 10.66 3.36 11 2 C11.125 4.875 11.125 4.875 11 8 C9 10 9 10 6.8359375 10.1953125 C4.55729167 10.13020833 2.27864583 10.06510417 0 10 C0 6.7 0 3.4 0 0 Z " fill="#4E4C4D" transform="translate(484,422)"/>
<path d="M0 0 C2.31 0.66 4.62 1.32 7 2 C7 2.33 7 2.66 7 3 C5.35 3 3.7 3 2 3 C2.020625 4.051875 2.04125 5.10375 2.0625 6.1875 C2.01103198 9.32704904 1.73482813 11.96883396 1 15 C0.67 15 0.34 15 0 15 C0 10.05 0 5.1 0 0 Z " fill="#AEAEAE" transform="translate(297,328)"/>
<path d="M0 0 C3.3 0.33 6.6 0.66 10 1 C9.01 2.485 9.01 2.485 8 4 C6.0546875 4.29296875 6.0546875 4.29296875 3.875 4.1875 C2.59625 4.125625 1.3175 4.06375 0 4 C-0.33 4.66 -0.66 5.32 -1 6 C-1.66 5.67 -2.32 5.34 -3 5 C-2.01 3.35 -1.02 1.7 0 0 Z " fill="#2C2C2C" transform="translate(530,325)"/>
<path d="M0 0 C5.61 0 11.22 0 17 0 C17 0.33 17 0.66 17 1 C13.7 1 10.4 1 7 1 C7 1.66 7 2.32 7 3 C4.69 3 2.38 3 0 3 C0 2.01 0 1.02 0 0 Z " fill="#2A2A2A" transform="translate(397,326)"/>
<path d="M0 0 C1.32 0 2.64 0 4 0 C4 0.66 4 1.32 4 2 C6.64 2 9.28 2 12 2 C5.765 5.225 5.765 5.225 1.8125 4.0625 C0.884375 3.711875 -0.04375 3.36125 -1 3 C-0.67 2.01 -0.34 1.02 0 0 Z " fill="#222222" transform="translate(278,296)"/>
<path d="M0 0 C2.475 0.495 2.475 0.495 5 1 C4.67 3.97 4.34 6.94 4 10 C3.67 9.01 3.34 8.02 3 7 C2.01 6.67 1.02 6.34 0 6 C0 4.02 0 2.04 0 0 Z " fill="#1D1D1D" transform="translate(593,358)"/>
<path d="M0 0 C3.63 0 7.26 0 11 0 C10.01 0.33 9.02 0.66 8 1 C8 1.66 8 2.32 8 3 C5.36 3 2.72 3 0 3 C0 2.01 0 1.02 0 0 Z " fill="#393939" transform="translate(141,326)"/>
<path d="M0 0 C1.32 0.66 2.64 1.32 4 2 C3.34 3.98 2.68 5.96 2 8 C0.68 8 -0.64 8 -2 8 C-1.34 5.36 -0.68 2.72 0 0 Z " fill="#C8C8C8" transform="translate(503,438)"/>
<path d="M0 0 C3.3 0 6.6 0 10 0 C7 2 7 2 3 2 C3 4.97 3 7.94 3 11 C2.67 11 2.34 11 2 11 C2 8.03 2 5.06 2 2 C1.34 2 0.68 2 0 2 C0 1.34 0 0.68 0 0 Z " fill="#E5E3E4" transform="translate(481,420)"/>
<path d="M0 0 C3.63 0.33 7.26 0.66 11 1 C11 1.66 11 2.32 11 3 C7.04 3 3.08 3 -1 3 C-0.67 2.01 -0.34 1.02 0 0 Z " fill="#F3F3F3" transform="translate(529,442)"/>
<path d="M0 0 C2.97 0 5.94 0 9 0 C7.68 0.33 6.36 0.66 5 1 C5.33 1.99 5.66 2.98 6 4 C3.69 3.67 1.38 3.34 -1 3 C-0.67 2.01 -0.34 1.02 0 0 Z " fill="#FBFBFB" transform="translate(182,328)"/>
<path d="M0 0 C5.94 0 11.88 0 18 0 C18 0.33 18 0.66 18 1 C13.71 1 9.42 1 5 1 C5 1.66 5 2.32 5 3 C3.0625 2.625 3.0625 2.625 1 2 C0.67 1.34 0.34 0.68 0 0 Z " fill="#222222" transform="translate(742,326)"/>
<path d="M0 0 C2 1.8125 2 1.8125 4 4 C4 4.99 4 5.98 4 7 C3.34 7 2.68 7 2 7 C1.67 7.99 1.34 8.98 1 10 C-0.1577506 6.52674819 -0.06866652 3.63932552 0 0 Z " fill="#D4D4D4" transform="translate(515,426)"/>
<path d="M0 0 C0.33 0 0.66 0 1 0 C2.10643764 5.83394389 2.27137992 8.76579213 -1 14 C-2.13732426 10.59598052 -1.83989957 8.22543336 -1.0625 4.75 C-0.86785156 3.85796875 -0.67320312 2.9659375 -0.47265625 2.046875 C-0.31667969 1.37140625 -0.16070313 0.6959375 0 0 Z " fill="#BCBCBC" transform="translate(805,380)"/>
<path d="M0 0 C0.33 0.66 0.66 1.32 1 2 C1.66 2 2.32 2 3 2 C2.67 3.32 2.34 4.64 2 6 C0.68 6.33 -0.64 6.66 -2 7 C-2 6.34 -2 5.68 -2 5 C-2.66 4.67 -3.32 4.34 -4 4 C-2.68 3.67 -1.36 3.34 0 3 C0 2.01 0 1.02 0 0 Z " fill="#CCCCCC" transform="translate(542,438)"/>
<path d="M0 0 C0.33 0.66 0.66 1.32 1 2 C3.31 2 5.62 2 8 2 C5 4 5 4 2 4 C2 5.98 2 7.96 2 10 C1.67 10 1.34 10 1 10 C0.67 6.7 0.34 3.4 0 0 Z " fill="#9E9E9E" transform="translate(528,386)"/>
<path d="M0 0 C0.33 0 0.66 0 1 0 C1.08107583 1.93681161 1.13922475 3.8745934 1.1875 5.8125 C1.23970703 7.43091797 1.23970703 7.43091797 1.29296875 9.08203125 C1 12 1 12 -0.51171875 13.88671875 C-1.00285156 14.25410156 -1.49398437 14.62148438 -2 15 C-1.03644647 4.44191344 -1.03644647 4.44191344 0 0 Z " fill="#C1C1C1" transform="translate(203,381)"/>
<path d="M0 0 C0.33 0.99 0.66 1.98 1 3 C1.66 3 2.32 3 3 3 C3.33 5.97 3.66 8.94 4 12 C2.02 12.99 2.02 12.99 0 14 C0.08378906 13.40832031 0.16757812 12.81664062 0.25390625 12.20703125 C0.80889424 7.90060543 1.23226652 4.24447356 0 0 Z " fill="#BBBBBB" transform="translate(468,336)"/>
<path d="M0 0 C0.125 2.875 0.125 2.875 0 6 C-0.66 6.66 -1.32 7.32 -2 8 C-2.66 7.67 -3.32 7.34 -4 7 C-3.625 4.0625 -3.625 4.0625 -3 1 C-1 0 -1 0 0 0 Z " fill="#DADADA" transform="translate(511,422)"/>
<path d="M0 0 C0.33 0.66 0.66 1.32 1 2 C3.31 2 5.62 2 8 2 C8 2.66 8 3.32 8 4 C5.03 4 2.06 4 -1 4 C-0.67 2.68 -0.34 1.36 0 0 Z " fill="#D7D7D7" transform="translate(288,372)"/>
<path d="M0 0 C0 0.33 0 0.66 0 1 C-5.28 0.67 -10.56 0.34 -16 0 C-16 -0.33 -16 -0.66 -16 -1 C-10.16524985 -1.85330338 -5.55139349 -2.48351814 0 0 Z " fill="#CCCCCC" transform="translate(313,346)"/>
<path d="M0 0 C0.66 0.33 1.32 0.66 2 1 C1.34 2.32 0.68 3.64 0 5 C-0.66 5 -1.32 5 -2 5 C-2.99 5.66 -3.98 6.32 -5 7 C-3.75023244 3.34683329 -3.32901247 2.21934164 0 0 Z " fill="#222222" transform="translate(526,334)"/>
<path d="M0 0 C0.598125 0.350625 1.19625 0.70125 1.8125 1.0625 C0.8225 1.3925 -0.1675 1.7225 -1.1875 2.0625 C-1.1875 2.7225 -1.1875 3.3825 -1.1875 4.0625 C-2.5075 3.4025 -3.8275 2.7425 -5.1875 2.0625 C-5.1875 1.4025 -5.1875 0.7425 -5.1875 0.0625 C-2.1875 -0.9375 -2.1875 -0.9375 0 0 Z " fill="#676767" transform="translate(960.1875,696.9375)"/>
<path d="M0 0 C1.21236328 0.01353516 1.21236328 0.01353516 2.44921875 0.02734375 C3.37154297 0.04474609 3.37154297 0.04474609 4.3125 0.0625 C4.3125 0.3925 4.3125 0.7225 4.3125 1.0625 C3.57 1.206875 2.8275 1.35125 2.0625 1.5 C-0.60708229 1.99309024 -0.60708229 1.99309024 -2.8125 2.75 C-4.6875 3.0625 -4.6875 3.0625 -7.6875 1.0625 C-4.80538698 0.10179566 -2.98899956 -0.04331883 0 0 Z " fill="#1D1D1D" transform="translate(135.6875,386.9375)"/>
<path d="M0 0 C0.33 0 0.66 0 1 0 C1 1.65 1 3.3 1 5 C2.32 5.66 3.64 6.32 5 7 C3.02 7.33 1.04 7.66 -1 8 C-0.67 5.36 -0.34 2.72 0 0 Z " fill="#858585" transform="translate(626,368)"/>
<path d="M0 0 C0.66 0 1.32 0 2 0 C2 0.66 2 1.32 2 2 C2.99 2.33 3.98 2.66 5 3 C4.34 3 3.68 3 3 3 C3 4.98 3 6.96 3 9 C2.67 9 2.34 9 2 9 C2 7.35 2 5.7 2 4 C1.01 3.67 0.02 3.34 -1 3 C-0.67 2.01 -0.34 1.02 0 0 Z " fill="#ECECEC" transform="translate(657,297)"/>
<path d="M0 0 C2.64 0 5.28 0 8 0 C6.02579865 2.52259061 5.03254358 2.9929808 1.8125 3.6875 C0.4203125 3.8421875 0.4203125 3.8421875 -1 4 C-0.67 2.68 -0.34 1.36 0 0 Z " fill="#3E3E3E" transform="translate(629,357)"/>
<path d="M0 0 C2.99931194 1.99954129 3.81380099 2.73795271 5 6 C4.67 6.99 4.34 7.98 4 9 C4 8.34 4 7.68 4 7 C3.01 6.67 2.02 6.34 1 6 C0.67 4.02 0.34 2.04 0 0 Z " fill="#DCDCDC" transform="translate(292,307)"/>
</svg>
